#N canvas 259 59 1211 869 12;
#X declare -path .;
#X declare -path sounds;
#X declare -path lib;
#X obj 33 54 declare -path .;
#N canvas 0 37 536 303 LOADBANGS 0;
#X obj 172 140 s gain;
#X msg 172 119 1;
#X msg 290 121 0;
#X obj 290 142 s mode;
#X text 322 116 start in Play mode;
#X text 322 127 not Freeze mode;
#X obj 154 14 loadbang;
#X obj 154 57 s loadbang;
#X obj 154 36 bng 15 250 50 0 empty empty empty 17 7 0 10 #fcfcfc #000000 #000000;
#X obj 290 100 r loadbang;
#X obj 172 98 r loadbang;
#X obj 108 13 inlet;
#X msg 168 221 verbose 0;
#X obj 168 245 s bela_setMidi;
#X obj 168 190 r loadbang;
#X msg 73 61 \; pd dsp 1;
#X connect 1 0 0 0;
#X connect 2 0 3 0;
#X connect 6 0 8 0;
#X connect 8 0 7 0;
#X connect 8 0 15 0;
#X connect 9 0 2 0;
#X connect 10 0 1 0;
#X connect 11 0 8 0;
#X connect 12 0 13 0;
#X connect 14 0 12 0;
#X restore 34 30 pd LOADBANGS;
#X obj 34 10 bng 15 250 50 0 empty empty empty 17 7 0 10 #fcfcfc #000000 #000000;
#X floatatom 935 399 5 10 2000 0 - - - 0;
#X floatatom 980 399 5 0 100 0 - - - 0;
#X text 980 363 var %, f 4;
#X floatatom 611 440 5 0 0 0 - - - 0;
#X floatatom 1025 399 5 0 0 0 - - - 0;
#X floatatom 1070 399 5 0 1000 0 - - - 0;
#X text 1072 363 var %, f 4;
#X floatatom 661 440 5 0 0 0 - - - 0;
#X text 1021 363 transp (cts), f 6;
#X floatatom 844 399 5 10 2000 0 - - - 0;
#X floatatom 889 399 5 0 2500 0 - - - 0;
#X obj 325 106 tgl 19 0 empty empty empty 0 -10 0 12 #fcfcfc #000000 #000000 0 1;
#X floatatom 799 399 5 0 0 0 - - - 0;
#X floatatom 1115 399 5 0 0 0 - - - 0;
#N canvas 45 436 455 198 triangle-window 0;
#X text 256 9 window shape;
#X obj 20 26 loadbang;
#X obj 20 85 soundfiler;
#N canvas 179 217 450 300 (subpatch) 0;
#X array wndw 512 float 0;
#X coords 0 1 511 -1 200 140 1 0 0;
#X restore 210 32 graph;
#X obj 21 122 s trisize;
#X msg 20 55 read -resize tri wndw;
#X connect 1 0 5 0;
#X connect 2 0 4 0;
#X connect 5 0 2 0;
#X restore 33 120 pd triangle-window;
#X floatatom 754 399 5 0 0 0 - - - 0;
#X obj 709 399 tgl 19 0 empty empty empty 17 7 0 10 #fcfcfc #000000 #000000 0 1;
#X text 747 363 time stretch, f 7;
#X floatatom 560 440 5 0 0 0 - - - 0;
#X text 690 363 play/ freeze, f 6;
#X text 243 101 Play patch manually, f 11;
#X floatatom 572 399 5 10 2000 0 - - - 0;
#X floatatom 533 399 3 0 0 0 - - - 0;
#X text 1110 363 pitchquant (cents), f 10;
#X text 882 363 posvar (ms), f 6;
#X text 804 363 var %, f 3;
#X text 936 349 gran dur (ms), f 4;
#X text 57 212 Bela IDE monitor, f 18;
#X text 518 363 density (Hz), f 7;
#X text 569 363 metro (ms), f 5;
#X text 841 363 pos (ms), f 5;
#X obj 636 552 cloud-chan doublebuf1;
#X floatatom 727 527 5 0 0 0 - - - 0;
#X obj 768 528 bng 19 250 50 0 empty empty empty 0 -10 0 12 #fcfcfc #000000 #000000;
#X obj 709 421 cloud-params doublebuf1, f 59;
#X text 650 455 transp (cts), f 6;
#X text 556 455 time stretch, f 7;
#X text 610 455 gran dur, f 4;
#N canvas 81 402 772 492 emg 0;
#X obj 30 254 vsl 19 162 0 1 0 0 empty empty empty 0 -9 0 12 #fcfcfc #000000 #000000 0 1;
#X obj 111 254 vsl 19 162 0 1 0 0 empty empty empty 0 -9 0 12 #fcfcfc #000000 #000000 0 1;
#X obj 111 221 eavi-rms;
#N canvas 333 268 250 226 range 0;
#X floatatom 37 78 5 0 0 0 - - - 0;
#X obj 37 101 - 8192;
#X obj 37 125 / 8192;
#X floatatom 37 149 5 0 0 0 - - - 0;
#X obj 37 45 inlet;
#X obj 37 180 outlet;
#X text 98 94 14 bit value converted to -1 to 1, f 14;
#X connect 0 0 1 0;
#X connect 1 0 2 0;
#X connect 2 0 3 0;
#X connect 3 0 5 0;
#X connect 4 0 0 0;
#X restore 30 179 pd range;
#N canvas 333 268 250 226 range 0;
#X floatatom 37 78 5 0 0 0 - - - 0;
#X obj 37 101 - 8192;
#X obj 37 125 / 8192;
#X floatatom 37 149 5 0 0 0 - - - 0;
#X obj 37 45 inlet;
#X obj 37 180 outlet;
#X text 98 94 14 bit value converted to -1 to 1, f 14;
#X connect 0 0 1 0;
#X connect 1 0 2 0;
#X connect 2 0 3 0;
#X connect 3 0 5 0;
#X connect 4 0 0 0;
#X restore 111 179 pd range;
#X floatatom 563 203 5 0 0 0 - - - 0;
#X text 562 224 smoothing (ms), f 15;
#X obj 675 160 loadbang;
#X obj 30 221 eavi-rms;
#X obj 30 424 outlet;
#X obj 111 424 outlet;
#X obj 30 102 bendin 2;
#X obj 111 102 bendin 3;
#X obj 495 62 inlet;
#X obj 563 62 inlet;
#X obj 563 110 + 1;
#X text 28 37 strangely \, EMG-1 comes out of Bendin 2...;
#X floatatom 496 203 5 0 0 0 - - - 0;
#X obj 496 111 + 1;
#X obj 496 87 * 20;
#X obj 190 254 vsl 19 162 0 1 0 0 empty empty empty 0 -9 0 12 #fcfcfc #000000 #000000 0 1;
#X obj 271 254 vsl 19 162 0 1 0 0 empty empty empty 0 -9 0 12 #fcfcfc #000000 #000000 0 1;
#X obj 271 221 eavi-rms;
#N canvas 333 268 250 226 range 0;
#X floatatom 37 78 5 0 0 0 - - - 0;
#X obj 37 101 - 8192;
#X obj 37 125 / 8192;
#X floatatom 37 149 5 0 0 0 - - - 0;
#X obj 37 45 inlet;
#X obj 37 180 outlet;
#X text 98 94 14 bit value converted to -1 to 1, f 14;
#X connect 0 0 1 0;
#X connect 1 0 2 0;
#X connect 2 0 3 0;
#X connect 3 0 5 0;
#X connect 4 0 0 0;
#X restore 190 179 pd range;
#N canvas 333 268 250 226 range 0;
#X floatatom 37 78 5 0 0 0 - - - 0;
#X obj 37 101 - 8192;
#X obj 37 125 / 8192;
#X floatatom 37 149 5 0 0 0 - - - 0;
#X obj 37 45 inlet;
#X obj 37 180 outlet;
#X text 98 94 14 bit value converted to -1 to 1, f 14;
#X connect 0 0 1 0;
#X connect 1 0 2 0;
#X connect 2 0 3 0;
#X connect 3 0 5 0;
#X connect 4 0 0 0;
#X restore 271 179 pd range;
#X obj 190 221 eavi-rms;
#X obj 190 424 outlet;
#X obj 271 424 outlet;
#X obj 190 102 bendin 4;
#X obj 271 103 bendin 5;
#X obj 37 142 s emg1-raw;
#X obj 116 142 s emg2-raw;
#X obj 197 142 s emg3-raw;
#X obj 276 142 s emg4-raw;
#X obj 365 419 sig~;
#X obj 365 453 dac~ 7 8 9 10, f 15;
#X obj 399 419 sig~;
#X obj 433 419 sig~;
#X obj 467 419 sig~;
#X text 366 374 Smoothed EMG goes to Bela Pepper CV out 4 \, 5 \, 6 \, 7, f 33;
#X text 468 225 gain EMG 1 \, 2 \, 3 \, 4, f 10;
#X text 462 34 Knob 1(0);
#X obj 563 86 * 400;
#X text 557 33 Knob 2(1);
#X text 612 59 smoothing;
#X msg 496 179 1;
#X msg 563 179 50;
#X connect 0 0 9 0;
#X connect 0 0 34 0;
#X connect 1 0 10 0;
#X connect 1 0 36 0;
#X connect 2 0 1 0;
#X connect 3 0 8 0;
#X connect 4 0 2 0;
#X connect 5 0 8 1;
#X connect 5 0 2 1;
#X connect 5 0 25 1;
#X connect 5 0 22 1;
#X connect 7 0 46 0;
#X connect 7 0 45 0;
#X connect 8 0 0 0;
#X connect 11 0 3 0;
#X connect 11 0 30 0;
#X connect 12 0 4 0;
#X connect 12 0 31 0;
#X connect 13 0 19 0;
#X connect 14 0 42 0;
#X connect 15 0 5 0;
#X connect 17 0 8 3;
#X connect 17 0 25 3;
#X connect 17 0 2 3;
#X connect 17 0 22 3;
#X connect 18 0 17 0;
#X connect 19 0 18 0;
#X connect 20 0 26 0;
#X connect 20 0 37 0;
#X connect 21 0 27 0;
#X connect 21 0 38 0;
#X connect 22 0 21 0;
#X connect 23 0 25 0;
#X connect 24 0 22 0;
#X connect 25 0 20 0;
#X connect 28 0 23 0;
#X connect 28 0 32 0;
#X connect 29 0 24 0;
#X connect 29 0 33 0;
#X connect 34 0 35 0;
#X connect 36 0 35 1;
#X connect 37 0 35 2;
#X connect 38 0 35 3;
#X connect 42 0 15 0;
#X connect 45 0 17 0;
#X connect 46 0 5 0;
#X coords 0 492 1 491 85 60 0;
#X restore 560 85 pd emg;
#X f 10;
#N canvas 0 22 450 300 (subpatch) 0;
#X array doublebuf1 220500 float 0;
#X coords 0 1 220499 -1 200 140 1 0 0;
#X restore 37 613 graph;
#X text 243 665 220500 samples = 5 sec @ 44.1Khz, f 17;
#X text 243 717 Each half = 2.5 sec, f 13;
#X obj 99 489 bng 19 250 50 0 empty empty empty 0 -10 0 12 #fcfcfc #000000 #000000;
#X obj 187 489 bng 19 250 50 0 empty empty empty 0 -10 0 12 #fcfcfc #000000 #000000;
#X text 66 515 start first recording, f 17;
#X text 131 610 | | | | | | | | | |, f 2;
#X text 243 613 Buffer contains two copies of 2500ms, f 20;
#N canvas 92 129 427 246 alternator 0;
#X obj 35 43 tgl 19 0 empty empty empty 0 -10 0 12 #fcfcfc #000000 #000000 0 1;
#X floatatom 98 48 10 0 0 0 - - - 0;
#X obj 35 67 metro 2500;
#X obj 35 91 tgl 19 0 empty empty empty 0 -10 0 12 #fcfcfc #000000 #000000 0 1;
#X obj 35 115 select 0 1;
#X obj 35 139 bng 19 250 50 0 empty empty empty 0 -10 0 12 #fcfcfc #000000 #000000;
#X obj 68 139 bng 19 250 50 0 empty empty empty 0 -10 0 12 #fcfcfc #000000 #000000;
#X obj 35 19 loadbang;
#X text 131 77 5 sec buffer \, with two recordings starting half a buffer apart, f 33;
#X text 127 145 trigger rec - first half \, second half;
#X obj 35 176 outlet;
#X obj 86 176 outlet;
#X connect 0 0 2 0;
#X connect 1 0 2 1;
#X connect 2 0 3 0;
#X connect 3 0 4 0;
#X connect 4 0 5 0;
#X connect 4 1 6 0;
#X connect 5 0 10 0;
#X connect 6 0 11 0;
#X connect 7 0 0 0;
#X restore 99 463 pd alternator;
#X text 196 517 start second recording half buffer in, f 22;
#X obj 36 548 tabwrite~ doublebuf1;
#X obj 187 548 tabwrite~ doublebuf1;
#N canvas 40 158 1243 494 parameter-monitor 0;
#X text 90 10 monitor parameters in Bela IDE console;
#X obj 106 67 tgl 19 0 empty empty empty 0 -10 0 12 #fcfcfc #000000 #000000 0 1;
#X obj 106 134 t b b b b b, f 30;
#X obj 530 443 print;
#X obj 106 42 inlet;
#X obj 106 261 pack 0 0 0 0 0 0 0 0, f 55;
#X obj 106 236 f;
#X obj 156 236 f;
#X obj 209 236 f;
#X obj 261 236 f;
#X obj 314 236 f;
#X obj 384 232 f;
#X obj 434 232 f;
#X obj 487 232 f;
#X obj 452 161 r cv6;
#X obj 528 190 r cv7;
#X msg 646 290 cv0 \$1 cv1 \$2 dry \$3 wet \$4 cv4 \$5 cv5 \$6 cv6 \$7 cv7 \$8;
#X obj 19 159 r doublebuf1-density;
#X obj 81 189 r doublebuf1-pos;
#X obj 171 160 r doublebuf1-dur;
#X obj 210 189 r doublebuf1-transp;
#X obj 297 163 r doublebuf1-stretch;
#X obj 106 90 metro 2000;
#X obj 391 191 r doublebuf1-metro;
#X msg 111 293 dens-metro \$1 pos \$2 dur \$3 transp \$4 stretch \$5 metro \$6;
#X obj 647 153 t b b b b b, f 30;
#X obj 647 254 pack 0 0 0 0 0 0 0 0, f 55;
#X obj 647 229 f;
#X obj 697 229 f;
#X obj 750 229 f;
#X obj 802 229 f;
#X obj 855 229 f;
#X obj 925 225 f;
#X obj 975 225 f;
#X obj 1028 225 f;
#X obj 945 184 r cv6;
#X obj 990 184 r cv7;
#X obj 666 184 r cv0;
#X obj 708 184 r cv1;
#X obj 751 184 r cv2;
#X obj 793 184 r cv3;
#X obj 835 184 r cv4;
#X obj 887 184 r cv5;
#X connect 1 0 22 0;
#X connect 2 0 6 0;
#X connect 2 1 7 0;
#X connect 2 2 8 0;
#X connect 2 3 9 0;
#X connect 2 4 10 0;
#X connect 2 4 11 0;
#X connect 2 4 13 0;
#X connect 2 4 12 0;
#X connect 4 0 1 0;
#X connect 5 0 24 0;
#X connect 6 0 5 0;
#X connect 7 0 5 1;
#X connect 8 0 5 2;
#X connect 9 0 5 3;
#X connect 10 0 5 4;
#X connect 11 0 5 5;
#X connect 12 0 5 6;
#X connect 13 0 5 7;
#X connect 14 0 12 1;
#X connect 15 0 13 1;
#X connect 16 0 3 0;
#X connect 17 0 6 1;
#X connect 18 0 7 1;
#X connect 19 0 8 1;
#X connect 20 0 9 1;
#X connect 21 0 10 1;
#X connect 22 0 2 0;
#X connect 22 0 25 0;
#X connect 23 0 11 1;
#X connect 24 0 3 0;
#X connect 25 0 27 0;
#X connect 25 1 28 0;
#X connect 25 2 29 0;
#X connect 25 3 30 0;
#X connect 25 4 31 0;
#X connect 25 4 32 0;
#X connect 25 4 34 0;
#X connect 25 4 33 0;
#X connect 26 0 16 0;
#X connect 27 0 26 0;
#X connect 28 0 26 1;
#X connect 29 0 26 2;
#X connect 30 0 26 3;
#X connect 31 0 26 4;
#X connect 32 0 26 5;
#X connect 33 0 26 6;
#X connect 34 0 26 7;
#X connect 35 0 33 1;
#X connect 36 0 34 1;
#X connect 37 0 27 1;
#X connect 38 0 28 1;
#X connect 39 0 29 1;
#X connect 40 0 30 1;
#X connect 41 0 31 1;
#X connect 42 0 32 1;
#X restore 33 236 pd parameter-monitor;
#X f 21;
#X obj 33 214 tgl 19 1 empty empty empty 0 -10 0 12 #fcfcfc #000000 #000000 0 1;
#X obj 560 59 r cv0;
#X obj 627 59 r cv1;
#X text 440 247 COMPOSITION HERE;
#X obj 37 463 adc~ 1;
#X obj 572 552 adc~ 1;
#X text 55 161 Verbose to console, f 19;
#X obj 33 162 tgl 19 0 empty empty empty 0 -10 0 12 #fcfcfc #000000 #000000 0 1;
#X obj 33 186 s verbose;
#N canvas 656 139 1340 1040 ble-midi 0;
#X msg 316 421 disconnect;
#X obj 288 450 netsend -u -b;
#X obj 303 371 loadbang;
#X text 389 451 send as UDP \, binary;
#X text 289 27 Spaces are delimiters instead of forward slash /;
#X msg 303 395 connect localhost 36892;
#X text 291 51 Set sets message \, then send data;
#X obj 29 403 select 1;
#X obj 29 427 t b b;
#X msg 61 454 set connect;
#X obj 289 126 select 1;
#X obj 289 150 t b b;
#X msg 321 177 set connect_alias;
#X obj 288 337 oscformat;
#X obj 29 508 list append 123456;
#X obj 491 130 select 1;
#X obj 491 181 bng 19 250 50 0 empty empty empty 0 -10 0 12 #fcfcfc #000000 #000000;
#X msg 523 181 set link_alsa;
#X obj 491 154 t b b;
#X msg 289 231 symbol EAVI;
#X msg 874 141 hw 1 0 0;
#X obj 980 39 r button3;
#X obj 874 111 select 1;
#X obj 874 169 s bela_setMidi;
#X msg 33 227 symbol E2:16:01:30:32:30;
#X msg 33 149 symbol E2:16:01:39:31:30;
#X msg 36 74 symbol E2:16:01:37:31:30;
#X text 38 44 EAVI 17 Viola;
#X text 35 120 EAVI 19 Bass clarinet;
#X text 36 198 EAVI 20 Piano;
#X obj 29 375 change;
#X obj 289 98 change;
#X obj 491 102 change;
#X obj 874 83 change;
#X msg 29 481 symbol E2:16:01:37:31:30;
#X obj 289 74 r button1;
#X obj 584 255 oscparse;
#X obj 584 221 netreceive -u -b 36893;
#X obj 584 356 print connect;
#X obj 661 383 print connect_alias;
#X obj 739 409 print link_alsa;
#X obj 584 291 route list;
#X obj 584 324 route connect connect_alias link_alsa wd_status wd_PANIC;
#X text 697 463 strip timestamp;
#X obj 895 360 bng 19 250 50 0 empty empty empty 0 -10 0 12 #fcfcfc #000000 #000000;
#X obj 817 443 unpack 0 0 0;
#X floatatom 817 467 5 0 0 0 - - - 0;
#X floatatom 858 467 5 0 0 0 - - - 0;
#X floatatom 898 468 5 0 0 0 - - - 0;
#X obj 858 515 bng 19 250 50 0 empty empty empty 0 -10 0 12 #fcfcfc #000000 #000000;
#X obj 895 515 bng 19 250 50 0 empty empty empty 0 -10 0 12 #fcfcfc #000000 #000000;
#X obj 895 544 f;
#X obj 895 592 bng 19 250 50 0 empty empty empty 0 -10 0 12 #fcfcfc #000000 #000000;
#X obj 928 592 bng 19 250 50 0 empty empty empty 0 -10 0 12 #fcfcfc #000000 #000000;
#X obj 858 490 select 16 0;
#X text 867 291 need data on PANIC;
#X obj 895 568 select 4 0;
#X msg 939 758 Connected...;
#X msg 906 782 Reconnecting;
#X msg 869 807 DISCONNECTED;
#X obj 631 815 tgl 19 0 empty empty empty 0 -10 0 12 #fcfcfc #000000 #000000 0 1;
#X obj 656 838 tgl 19 0 empty empty empty 0 -10 0 12 #fcfcfc #000000 #000000 0 1;
#X obj 656 814 metro 150;
#X obj 677 788 unpack;
#X msg 677 755 1 150;
#X msg 731 755 1 350;
#X msg 784 755 1 1000;
#X obj 656 861 outlet;
#X obj 789 359 print status;
#X text 575 104 watchdog takes care of this;
#X obj 800 62 loadbang;
#X obj 901 40 r button2;
#X text 30 270 EAVI 8 Piano;
#X msg 27 299 symbol E2:16:01:38:30:30;
#X obj 1032 858 print EAVI-BLE;
#X obj 1032 833 spigot;
#X obj 895 415 print PANIC;
#X obj 895 391 spigot;
#X obj 979 415 print other;
#X obj 979 387 spigot;
#X obj 1109 317 r verbose;
#X obj 1109 341 tgl 19 0 empty empty empty 0 -10 0 12 #fcfcfc #000000 #000000 0 1;
#X obj 248 521 print sendosc;
#X obj 248 493 spigot;
#X msg 597 611 16;
#X msg 677 611 4;
#X msg 761 611 0;
#X text 538 590 disconnected / reconnecting / connected;
#X floatatom 677 660 5 0 0 0 - - - 0;
#X obj 677 683 change;
#X obj 677 707 select 16 4 0;
#X text 470 685 avoid hiccup in LED flashing;
#X connect 0 0 1 0;
#X connect 2 0 5 0;
#X connect 5 0 1 0;
#X connect 5 0 83 0;
#X connect 7 0 8 0;
#X connect 8 0 34 0;
#X connect 8 1 9 0;
#X connect 10 0 11 0;
#X connect 11 0 19 0;
#X connect 11 1 12 0;
#X connect 12 0 13 0;
#X connect 13 0 1 0;
#X connect 13 0 83 0;
#X connect 15 0 18 0;
#X connect 16 0 13 0;
#X connect 17 0 13 0;
#X connect 18 0 16 0;
#X connect 18 1 17 0;
#X connect 19 0 13 0;
#X connect 20 0 23 0;
#X connect 22 0 20 0;
#X connect 30 0 7 0;
#X connect 31 0 10 0;
#X connect 32 0 15 0;
#X connect 33 0 22 0;
#X connect 34 0 14 0;
#X connect 35 0 31 0;
#X connect 36 0 41 0;
#X connect 37 0 36 0;
#X connect 41 0 42 0;
#X connect 42 0 38 0;
#X connect 42 1 39 0;
#X connect 42 2 40 0;
#X connect 42 3 45 0;
#X connect 42 4 44 0;
#X connect 42 5 79 0;
#X connect 44 0 77 0;
#X connect 45 0 46 0;
#X connect 45 1 47 0;
#X connect 45 2 48 0;
#X connect 47 0 54 0;
#X connect 48 0 51 1;
#X connect 49 0 59 0;
#X connect 49 0 84 0;
#X connect 50 0 51 0;
#X connect 51 0 56 0;
#X connect 52 0 58 0;
#X connect 52 0 85 0;
#X connect 53 0 57 0;
#X connect 53 0 86 0;
#X connect 54 0 49 0;
#X connect 54 1 50 0;
#X connect 56 0 52 0;
#X connect 56 1 53 0;
#X connect 57 0 75 0;
#X connect 58 0 75 0;
#X connect 59 0 75 0;
#X connect 60 0 62 0;
#X connect 61 0 67 0;
#X connect 62 0 61 0;
#X connect 63 0 60 0;
#X connect 63 1 62 1;
#X connect 64 0 63 0;
#X connect 65 0 63 0;
#X connect 66 0 63 0;
#X connect 70 0 20 0;
#X connect 75 0 74 0;
#X connect 77 0 76 0;
#X connect 79 0 78 0;
#X connect 80 0 81 0;
#X connect 81 0 79 1;
#X connect 81 0 77 1;
#X connect 81 0 75 1;
#X connect 81 0 83 1;
#X connect 83 0 82 0;
#X connect 84 0 88 0;
#X connect 85 0 88 0;
#X connect 86 0 88 0;
#X connect 88 0 89 0;
#X connect 89 0 90 0;
#X connect 90 0 64 0;
#X connect 90 1 65 0;
#X connect 90 2 66 0;
#X restore 367 55 pd ble-midi;
#X obj 573 639 vu 19 200 empty empty -1 -10 0 12 #404040 #000000 1 0;
#X obj 805 566 loadbang;
#X obj 623 639 vu 19 200 empty empty -1 -10 0 12 #404040 #000000 1 0;
#X obj 806 645 vsl 20 128 -99 18 0 1 \$0-gain gain gain -7 -18 0 14 #fca85c #000000 #000000 11372 1;
#X floatatom 806 781 5 0 0 1 _db - - 0;
#X obj 716 518 hsl 128 15 -1 1 0 1 empty wetdry empty -2 -6 0 8 #000000 #fc9000 #000000 6286 0;
#X obj 716 537 hsl 128 15 -1 1 0 1 empty pan empty -2 -6 0 8 #fce014 #000000 #000000 6500 1;
#N canvas 909 566 561 362 stereo-wetdry 0;
#X obj 105 215 stgain2~, f 10;
#N canvas 110 415 625 417 vu 0;
#X obj 59 129 env~ 1024;
#X obj 161 111 abs~;
#X obj 161 213 snapshot~;
#X obj 161 256 rmstodb;
#X obj 161 21 inlet~;
#X obj 161 288 - 100;
#X obj 59 287 - 100;
#X obj 59 361 outlet;
#X obj 161 361 outlet;
#X text 344 307 Check the help file of env~ and slop~ for more details., f 31;
#X obj 239 89 expr 1000 / $f1;
#X floatatom 239 117 5 0 0 0 - - - 0;
#X obj 161 146 slop~ 0 0 0 0 1e+09;
#X obj 239 18 inlet;
#X floatatom 239 57 5 0 0 0 - - - 0;
#X text 359 89 convert to hz;
#X text 282 118 hz;
#X text 284 57 peak decay time in ms;
#X obj 59 171 t f b;
#X text 345 132 The env~ object is dedicated to RMS analysis. Its output is in dB (0-100 range \, pd style) but needs to be converted to dBFS (and we do that by simply subtracting 100)., f 31;
#X text 345 225 The slop~ object is used here for peak detection. We need to convert the output to dB with rmstodb and also subtract by 100 to convert it to dBFS., f 31;
#X connect 0 0 18 0;
#X connect 1 0 12 0;
#X connect 2 0 3 0;
#X connect 3 0 5 0;
#X connect 4 0 0 0;
#X connect 4 0 1 0;
#X connect 5 0 8 0;
#X connect 6 0 7 0;
#X connect 10 0 11 0;
#X connect 11 0 12 3;
#X connect 12 0 2 0;
#X connect 13 0 14 0;
#X connect 14 0 10 0;
#X connect 18 0 6 0;
#X connect 18 1 2 0;
#X restore 105 287 pd vu;
#N canvas 110 415 625 417 vu 0;
#X obj 59 129 env~ 1024;
#X obj 161 111 abs~;
#X obj 161 213 snapshot~;
#X obj 161 256 rmstodb;
#X obj 161 21 inlet~;
#X obj 161 288 - 100;
#X obj 59 287 - 100;
#X obj 59 361 outlet;
#X obj 161 361 outlet;
#X text 344 307 Check the help file of env~ and slop~ for more details., f 31;
#X obj 239 89 expr 1000 / $f1;
#X floatatom 239 117 5 0 0 0 - - - 0;
#X obj 161 146 slop~ 0 0 0 0 1e+09;
#X obj 239 18 inlet;
#X floatatom 239 57 5 0 0 0 - - - 0;
#X text 359 89 convert to hz;
#X text 282 118 hz;
#X text 284 57 peak decay time in ms;
#X obj 59 171 t f b;
#X text 345 132 The env~ object is dedicated to RMS analysis. Its output is in dB (0-100 range \, pd style) but needs to be converted to dBFS (and we do that by simply subtracting 100)., f 31;
#X text 345 225 The slop~ object is used here for peak detection. We need to convert the output to dB with rmstodb and also subtract by 100 to convert it to dBFS., f 31;
#X connect 0 0 18 0;
#X connect 1 0 12 0;
#X connect 2 0 3 0;
#X connect 3 0 5 0;
#X connect 4 0 0 0;
#X connect 4 0 1 0;
#X connect 5 0 8 0;
#X connect 6 0 7 0;
#X connect 10 0 11 0;
#X connect 11 0 12 3;
#X connect 12 0 2 0;
#X connect 13 0 14 0;
#X connect 14 0 10 0;
#X connect 18 0 6 0;
#X connect 18 1 2 0;
#X restore 242 287 pd vu;
#X obj 105 154 stbal1~, f 20;
#X obj 105 240 st-panner~, f 20;
#X text 75 10 dry in;
#X obj 60 39 inlet~;
#X obj 109 39 inlet~;
#X obj 159 39 inlet~;
#X obj 208 39 inlet~;
#X text 173 10 wet in;
#X obj 261 114 hsl 128 15 -1 1 0 1 empty empty empty -2 -6 0 8 #000000 #fc9000 #000000 6200 0;
#X floatatom 258 135 5 0 0 0 - - - 0;
#X obj 258 39 inlet;
#X text 251 10 dry/wet;
#X obj 396 61 vsl 20 128 -99 18 0 1 \$0-gain empty gain -7 -18 0 14 #fca85c #000000 #000000 11300 1;
#X floatatom 397 197 5 0 0 1 _db - - 0;
#X obj 105 311 outlet;
#X obj 242 311 outlet;
#X obj 325 287 outlet~;
#X obj 462 287 outlet~;
#X obj 451 40 inlet;
#X obj 260 162 hsl 128 15 -1 1 0 1 empty empty empty -2 -6 0 8 #fce014 #000000 #000000 6500 1;
#X floatatom 257 182 5 0 0 0 - - - 0;
#X obj 315 39 inlet;
#X text 319 10 pan;
#X connect 0 0 4 0;
#X connect 0 1 4 1;
#X connect 1 0 17 0;
#X connect 2 0 18 0;
#X connect 3 0 0 0;
#X connect 3 1 0 1;
#X connect 4 0 1 0;
#X connect 4 0 19 0;
#X connect 4 1 2 0;
#X connect 4 1 20 0;
#X connect 6 0 3 0;
#X connect 7 0 3 1;
#X connect 8 0 3 2;
#X connect 9 0 3 3;
#X connect 11 0 12 0;
#X connect 12 0 3 4;
#X connect 13 0 11 0;
#X connect 15 0 16 0;
#X connect 16 0 0 2;
#X connect 21 0 15 0;
#X connect 22 0 23 0;
#X connect 23 0 4 2;
#X connect 24 0 22 0;
#X restore 572 592 pd stereo-wetdry;
#X f 28;
#X msg 805 590 3;
#X obj 559 156 vsl 16 100 0 1 0 0 empty empty empty 0 -9 0 12 #01e4e9 #000000 #000000 0 1;
#X obj 580 156 vsl 16 100 0 1 0 0 empty empty empty 0 -9 0 12 #01e4e9 #000000 #000000 0 1;
#X obj 617 156 vsl 16 100 0 1 0 0 empty empty empty 0 -9 0 12 #faff00 #000000 #000000 0 1;
#X obj 638 156 vsl 16 100 0 1 0 0 empty empty empty 0 -9 0 12 #faff00 #000000 #000000 0 1;
#X obj 675 155 vsl 16 100 0 1 0 0 empty empty empty 0 -9 0 12 #e3c6ff #000000 #000000 0 1;
#X obj 696 155 vsl 16 100 0 1 0 0 empty empty empty 0 -9 0 12 #e3c6ff #000000 #000000 0 1;
#N canvas 83 847 2432 437 mapper 0;
#X obj 20 82 inlet;
#X floatatom 20 106 5 0 0 0 - - - 0;
#X obj 37 174 m_scale 0 1 0 100;
#X floatatom 37 198 5 0 0 0 - - - 0;
#X floatatom 76 151 5 0 0 0 - - - 0;
#X floatatom 115 151 5 0 0 0 - - - 0;
#X floatatom 154 151 5 0 0 0 - - - 0;
#X obj 37 316 send;
#X msg 72 262 symbol doublebuf1-stretch;
#X symbolatom 62 290 25 0 0 0 - - - 0;
#X obj 63 106 route send min max curve;
#X obj 63 82 r map1;
#X obj 249 82 inlet;
#X floatatom 249 106 5 0 0 0 - - - 0;
#X obj 266 174 m_scale 0 1 0 100;
#X floatatom 266 198 5 0 0 0 - - - 0;
#X floatatom 305 151 5 0 0 0 - - - 0;
#X floatatom 344 151 5 0 0 0 - - - 0;
#X floatatom 383 151 5 0 0 0 - - - 0;
#X obj 266 316 send;
#X symbolatom 291 290 25 0 0 0 - - - 0;
#X obj 292 106 route send min max curve;
#X obj 292 82 r map2;
#X msg 301 262 symbol doublebuf1-dur;
#X obj 505 78 inlet;
#X floatatom 505 102 5 0 0 0 - - - 0;
#X obj 522 170 m_scale 0 1 0 100;
#X floatatom 522 194 5 0 0 0 - - - 0;
#X floatatom 561 147 5 0 0 0 - - - 0;
#X floatatom 600 147 5 0 0 0 - - - 0;
#X floatatom 639 147 5 0 0 0 - - - 0;
#X obj 522 312 send;
#X symbolatom 547 286 25 0 0 0 - - - 0;
#X obj 548 102 route send min max curve;
#X obj 734 78 inlet;
#X floatatom 734 102 5 0 0 0 - - - 0;
#X obj 751 170 m_scale 0 1 0 100;
#X floatatom 751 194 5 0 0 0 - - - 0;
#X floatatom 790 147 5 0 0 0 - - - 0;
#X floatatom 829 147 5 0 0 0 - - - 0;
#X floatatom 868 147 5 0 0 0 - - - 0;
#X obj 751 312 send;
#X symbolatom 776 286 25 0 0 0 - - - 0;
#X obj 777 102 route send min max curve;
#X obj 981 78 inlet;
#X floatatom 981 102 5 0 0 0 - - - 0;
#X obj 998 170 m_scale 0 1 0 100;
#X floatatom 998 194 5 0 0 0 - - - 0;
#X floatatom 1037 147 5 0 0 0 - - - 0;
#X floatatom 1076 147 5 0 0 0 - - - 0;
#X floatatom 1115 147 5 0 0 0 - - - 0;
#X obj 998 312 send;
#X symbolatom 1023 286 25 0 0 0 - - - 0;
#X obj 1024 102 route send min max curve;
#X obj 1210 78 inlet;
#X floatatom 1210 102 5 0 0 0 - - - 0;
#X obj 1227 170 m_scale 0 1 0 100;
#X floatatom 1227 194 5 0 0 0 - - - 0;
#X floatatom 1266 147 5 0 0 0 - - - 0;
#X floatatom 1305 147 5 0 0 0 - - - 0;
#X floatatom 1344 147 5 0 0 0 - - - 0;
#X obj 1227 312 send;
#X symbolatom 1252 286 25 0 0 0 - - - 0;
#X obj 1253 102 route send min max curve;
#X obj 548 78 r map3;
#X obj 777 78 r map4;
#X obj 1024 78 r map5;
#X obj 1253 78 r map6;
#X msg 557 258 symbol doublebuf2-stretch;
#X msg 786 258 symbol doublebuf2-dur;
#X msg 1033 258 symbol doublebuf3-stretch;
#X msg 1262 258 symbol doublebuf3-dur;
#X msg 79 339 \; map1 send symbol doublebuf1-dur \; map1 min 0 \; map1 max 100 \; map1 curve 2 \;, f 33;
#X obj 1440 79 inlet;
#X floatatom 1440 103 5 0 0 0 - - - 0;
#X obj 1457 171 m_scale 0 1 0 100;
#X floatatom 1457 195 5 0 0 0 - - - 0;
#X floatatom 1496 148 5 0 0 0 - - - 0;
#X floatatom 1535 148 5 0 0 0 - - - 0;
#X floatatom 1574 148 5 0 0 0 - - - 0;
#X obj 1457 313 send;
#X symbolatom 1482 287 25 0 0 0 - - - 0;
#X obj 1483 103 route send min max curve;
#X obj 1669 79 inlet;
#X floatatom 1669 103 5 0 0 0 - - - 0;
#X obj 1686 171 m_scale 0 1 0 100;
#X floatatom 1686 195 5 0 0 0 - - - 0;
#X floatatom 1725 148 5 0 0 0 - - - 0;
#X floatatom 1764 148 5 0 0 0 - - - 0;
#X floatatom 1803 148 5 0 0 0 - - - 0;
#X obj 1686 313 send;
#X symbolatom 1711 287 25 0 0 0 - - - 0;
#X obj 1712 103 route send min max curve;
#X msg 1492 259 symbol doublebuf3-stretch;
#X msg 1721 259 symbol doublebuf3-dur;
#X obj 1483 79 r map7;
#X obj 1712 79 r map8;
#X obj 1906 77 inlet;
#X floatatom 1906 101 5 0 0 0 - - - 0;
#X obj 1923 169 m_scale 0 1 0 100;
#X floatatom 1923 193 5 0 0 0 - - - 0;
#X floatatom 1962 146 5 0 0 0 - - - 0;
#X floatatom 2001 146 5 0 0 0 - - - 0;
#X floatatom 2040 146 5 0 0 0 - - - 0;
#X obj 1923 311 send;
#X symbolatom 1948 285 25 0 0 0 - - - 0;
#X obj 1949 101 route send min max curve;
#X obj 2135 77 inlet;
#X floatatom 2135 101 5 0 0 0 - - - 0;
#X obj 2152 169 m_scale 0 1 0 100;
#X floatatom 2152 193 5 0 0 0 - - - 0;
#X floatatom 2191 146 5 0 0 0 - - - 0;
#X floatatom 2230 146 5 0 0 0 - - - 0;
#X floatatom 2269 146 5 0 0 0 - - - 0;
#X obj 2152 311 send;
#X symbolatom 2177 285 25 0 0 0 - - - 0;
#X obj 2178 101 route send min max curve;
#X msg 1958 257 symbol doublebuf3-stretch;
#X msg 2187 257 symbol doublebuf3-dur;
#X obj 1949 77 r map9;
#X obj 2178 76 r map10;
#X text 41 25 TEN PROGRAMMABLE MAPPERS;
#X obj 425 370 r nil;
#X text 477 369 sink;
#X connect 0 0 1 0;
#X connect 1 0 2 0;
#X connect 2 0 3 0;
#X connect 3 0 7 0;
#X connect 4 0 2 3;
#X connect 5 0 2 4;
#X connect 6 0 2 5;
#X connect 8 0 9 0;
#X connect 9 0 7 1;
#X connect 10 0 9 0;
#X connect 10 1 4 0;
#X connect 10 2 5 0;
#X connect 10 3 6 0;
#X connect 11 0 10 0;
#X connect 12 0 13 0;
#X connect 13 0 14 0;
#X connect 14 0 15 0;
#X connect 15 0 19 0;
#X connect 16 0 14 3;
#X connect 17 0 14 4;
#X connect 18 0 14 5;
#X connect 20 0 19 1;
#X connect 21 0 20 0;
#X connect 21 1 16 0;
#X connect 21 2 17 0;
#X connect 21 3 18 0;
#X connect 22 0 21 0;
#X connect 23 0 20 0;
#X connect 24 0 25 0;
#X connect 25 0 26 0;
#X connect 26 0 27 0;
#X connect 27 0 31 0;
#X connect 28 0 26 3;
#X connect 29 0 26 4;
#X connect 30 0 26 5;
#X connect 32 0 31 1;
#X connect 33 0 32 0;
#X connect 33 1 28 0;
#X connect 33 2 29 0;
#X connect 33 3 30 0;
#X connect 34 0 35 0;
#X connect 35 0 36 0;
#X connect 36 0 37 0;
#X connect 37 0 41 0;
#X connect 38 0 36 3;
#X connect 39 0 36 4;
#X connect 40 0 36 5;
#X connect 42 0 41 1;
#X connect 43 0 42 0;
#X connect 43 1 38 0;
#X connect 43 2 39 0;
#X connect 43 3 40 0;
#X connect 44 0 45 0;
#X connect 45 0 46 0;
#X connect 46 0 47 0;
#X connect 47 0 51 0;
#X connect 48 0 46 3;
#X connect 49 0 46 4;
#X connect 50 0 46 5;
#X connect 52 0 51 1;
#X connect 53 0 52 0;
#X connect 53 1 48 0;
#X connect 53 2 49 0;
#X connect 53 3 50 0;
#X connect 54 0 55 0;
#X connect 55 0 56 0;
#X connect 56 0 57 0;
#X connect 57 0 61 0;
#X connect 58 0 56 3;
#X connect 59 0 56 4;
#X connect 60 0 56 5;
#X connect 62 0 61 1;
#X connect 63 0 62 0;
#X connect 63 1 58 0;
#X connect 63 2 59 0;
#X connect 63 3 60 0;
#X connect 64 0 33 0;
#X connect 65 0 43 0;
#X connect 66 0 53 0;
#X connect 67 0 63 0;
#X connect 68 0 32 0;
#X connect 69 0 42 0;
#X connect 70 0 52 0;
#X connect 71 0 62 0;
#X connect 73 0 74 0;
#X connect 74 0 75 0;
#X connect 75 0 76 0;
#X connect 76 0 80 0;
#X connect 77 0 75 3;
#X connect 78 0 75 4;
#X connect 79 0 75 5;
#X connect 81 0 80 1;
#X connect 82 0 81 0;
#X connect 82 1 77 0;
#X connect 82 2 78 0;
#X connect 82 3 79 0;
#X connect 83 0 84 0;
#X connect 84 0 85 0;
#X connect 85 0 86 0;
#X connect 86 0 90 0;
#X connect 87 0 85 3;
#X connect 88 0 85 4;
#X connect 89 0 85 5;
#X connect 91 0 90 1;
#X connect 92 0 91 0;
#X connect 92 1 87 0;
#X connect 92 2 88 0;
#X connect 92 3 89 0;
#X connect 93 0 81 0;
#X connect 94 0 91 0;
#X connect 95 0 82 0;
#X connect 96 0 92 0;
#X connect 97 0 98 0;
#X connect 98 0 99 0;
#X connect 99 0 100 0;
#X connect 100 0 104 0;
#X connect 101 0 99 3;
#X connect 102 0 99 4;
#X connect 103 0 99 5;
#X connect 105 0 104 1;
#X connect 106 0 105 0;
#X connect 106 1 101 0;
#X connect 106 2 102 0;
#X connect 106 3 103 0;
#X connect 107 0 108 0;
#X connect 108 0 109 0;
#X connect 109 0 110 0;
#X connect 110 0 114 0;
#X connect 111 0 109 3;
#X connect 112 0 109 4;
#X connect 113 0 109 5;
#X connect 115 0 114 1;
#X connect 116 0 115 0;
#X connect 116 1 111 0;
#X connect 116 2 112 0;
#X connect 116 3 113 0;
#X connect 117 0 105 0;
#X connect 118 0 115 0;
#X connect 119 0 106 0;
#X connect 120 0 116 0;
#X restore 559 269 pd mapper;
#X f 38;
#X obj 674 109 r cv2;
#X obj 696 131 r cv3;
#X obj 734 156 vsl 16 100 0 1 0 0 empty empty empty 0 -9 0 12 #ff8300 #000000 #000000 0 1;
#X obj 755 156 vsl 16 100 0 1 0 0 empty empty empty 0 -9 0 12 #ff8300 #000000 #000000 0 1;
#X obj 734 109 r cv4;
#X obj 755 131 r cv5;
#X obj 395 85 r doublebuf1-freeze;
#X obj 700 640 dac~ 1 2, f 10;
#N canvas 0 37 661 671 credits 0;
#X text 37 258 msp Granular Synthesis;
#X text 36 276 Adam Parkinson / RJDJ iOS / 2010;
#X text 200 257 nobuyasu sakodna / MaxMSP / 1999;
#X text 36 184 Based on our port of Sakonda-san's MSP granular synth;
#X text 36 201 Combined with Cipriani & Giri's Gen~ cloud generator from their Vol. 3 book, f 77;
#X text 37 294 Atau Tanaka 2024;
#X text 36 165 Granular cloud CLONE generator;
#X text 37 221 granular engine plays one grain at a time at density \, overflowing to next available grain when busy \, uses clone object to instantiate grains, f 77;
#X text 40 59 DEPLACEMENT for EMG and CHAMBER TRIO;
#X text 40 83 for ERAMAA TRIO 2024;
#X text 40 107 Atau Tanaka;
#X text 37 142 BTMIDID BLE MIDI by Nathan Adams;
#X text 40 37 Om Ujjayi v2 performance patch based on;
#X restore 56 6 pd credits;
#N canvas 121 146 539 397 emg-sonification 0;
#X obj 29 37 r emg1-raw;
#X obj 109 37 r emg2-raw;
#X obj 190 37 r emg3-raw;
#X obj 271 37 r emg4-raw;
#X obj 290 153 r raw-emg-gain;
#N canvas 333 268 366 295 xbend-cv 0;
#X floatatom 37 124 5 0 0 0 - - - 0;
#X obj 37 100 inlet;
#X text 39 31 14 bit value converted to 0 to 1 for 0-5V CV (watch out - DC offset), f 38;
#X obj 37 147 / 16384;
#X obj 37 194 sig~;
#X obj 37 218 outlet~;
#X floatatom 111 124 5 0 0 0 - - - 0;
#X obj 111 100 inlet;
#X obj 111 147 / 16384;
#X obj 111 194 sig~;
#X obj 111 218 outlet~;
#X floatatom 176 124 5 0 0 0 - - - 0;
#X obj 176 100 inlet;
#X obj 176 147 / 16384;
#X obj 176 194 sig~;
#X obj 176 218 outlet~;
#X floatatom 250 124 5 0 0 0 - - - 0;
#X obj 250 100 inlet;
#X obj 250 147 / 16384;
#X obj 250 194 sig~;
#X obj 250 218 outlet~;
#X connect 0 0 3 0;
#X connect 1 0 0 0;
#X connect 3 0 4 0;
#X connect 4 0 5 0;
#X connect 6 0 8 0;
#X connect 7 0 6 0;
#X connect 8 0 9 0;
#X connect 9 0 10 0;
#X connect 11 0 13 0;
#X connect 12 0 11 0;
#X connect 13 0 14 0;
#X connect 14 0 15 0;
#X connect 16 0 18 0;
#X connect 17 0 16 0;
#X connect 18 0 19 0;
#X connect 19 0 20 0;
#X restore 29 95 pd xbend-cv;
#X f 35;
#X obj 98 265 dac~ 3 4 5, f 11;
#X text 100 292 sum emg 1-4 on CV out 0;
#X text 99 314 L emg 1-2 on CV out 1;
#X text 100 338 R emg 3-4 on CV out 2;
#X text 317 180 assigned in pd mappings;
#X obj 16 165 *~ 0.5;
#X obj 66 165 *~ 0.5;
#X obj 114 165 *~ 0.5;
#X obj 164 165 *~ 0.5;
#X obj 98 228 *~ 1;
#X obj 135 228 *~ 1;
#X obj 172 229 *~ 1;
#X connect 0 0 5 0;
#X connect 1 0 5 1;
#X connect 2 0 5 2;
#X connect 3 0 5 3;
#X connect 4 0 15 1;
#X connect 4 0 16 1;
#X connect 4 0 17 1;
#X connect 5 0 11 0;
#X connect 5 0 16 0;
#X connect 5 1 12 0;
#X connect 5 1 16 0;
#X connect 5 2 13 0;
#X connect 5 2 17 0;
#X connect 5 3 14 0;
#X connect 5 3 17 0;
#X connect 11 0 15 0;
#X connect 12 0 15 0;
#X connect 13 0 15 0;
#X connect 14 0 15 0;
#X connect 15 0 6 0;
#X connect 16 0 6 1;
#X connect 17 0 6 2;
#X restore 637 85 pd emg-sonification;
#X obj 792 154 vsl 16 100 0 1 0 0 empty empty empty 0 -9 0 12 #c6ffc7 #000000 #000000 0 1;
#X obj 813 154 vsl 16 100 0 1 0 0 empty empty empty 0 -9 0 12 #c6ffc7 #000000 #000000 0 1;
#X obj 792 107 r cv6;
#X obj 813 129 r cv7;
#N canvas 459 398 821 271 mappings 0;
#N canvas 63 100 955 696 presets 0;
#X msg 35 157 \; play-cloud 0 1000 1000 -400;
#X msg 35 205 \; play-cloud 0 1000 500 -400;
#X text 33 134 instance \, position (ms) \, grandur \, transp;
#X msg 128 34 \; density 0 \; metro 20 \; dur 80 \; transp 0 \; posvar 10 \;;
#X msg 35 35 \; density 0 \; metro 100 \; dur 200 \; transp 0 \; posvar 0 \;;
#X text 352 23 piano hits;
#X msg 378 156 \; density 0 \; metro 50 \; freeze 0 \; stretch 0.5 \; stretchvar 0 \; pos 0 \; posvar 0 \; dur 80 \; durvar 0 \; transp 0 \; transpvar 0 \; pitchquant 0 \;;
#X msg 501 153 \; density 40 \; metro 0 \; freeze 0 \; stretch 0.8 \; stretchvar 50 \; pos 0 \; posvar 4 \; dur 80 \; durvar 50 \; transp 10 \; transpvar 100 \; pitchquant 0 \;;
#X obj 378 98 select 1;
#X obj 378 74 r button1;
#X obj 503 71 r button2;
#X obj 503 95 select 1;
#X obj 643 96 select 1;
#X obj 768 93 select 1;
#X obj 643 72 r button3;
#X obj 768 69 r button4;
#X msg 643 154 \; density 10 \; metro 250 \; freeze 1 \; stretch 0 \; stretchvar 0 \; pos 1000 \; posvar 50 \; dur 250 \; durvar 30 \; transp 100 \; transpvar 50 \; pitchquant 0 \;;
#X msg 766 151 \; density 0 \; metro 100 \; freeze 0 \; stretch 0.8 \; stretchvar 50 \; pos 0 \; posvar 4 \; dur 280 \; durvar 50 \; transp 700 \; transpvar 50 \; pitchquant 200 \;;
#X msg 373 414 \; doublebuf1-density 3 \; doublebuf1-metro 500 \; doublebuf1-freeze 0 \; doublebuf1-stretch 1 \; doublebuf1-stretchvar 25 \; doublebuf1-pos 0 \; doublebuf1-posvar 50 \; doublebuf1-dur 1000 \; doublebuf1-durvar 20 \; doublebuf1-transp 0 \; doublebuf1-transpvar 0 \; doublebuf1-pitchquant 0 \;;
#X msg 576 523 \; map1 send symbol doublebuf1-dur \; map1 min 0 \; map1 max 100 \; map1 curve 2 \;, f 33;
#X text 576 446 Examples of messages in Composition patch, f 29;
#N canvas 465 500 1131 547 drone 0;
#X obj 206 9 inlet;
#X obj 206 33 bng 19 250 50 0 empty empty empty 0 -10 0 12 #fcfcfc #000000 #000000;
#X text 268 12 then increase density add posvar;
#X msg 39 94 \; doublebuf1-density 3 \; doublebuf1-metro 500 \; doublebuf1-freeze 1 \; doublebuf1-stretch 2 \; doublebuf1-stretchvar 0 \; doublebuf1-pos 0 \; doublebuf1-posvar 0 \; doublebuf1-dur 1000 \; doublebuf1-durvar 0 \; doublebuf1-transp 50 \; doublebuf1-transpvar 0 \; doublebuf1-pitchquant 0 \;;
#X msg 208 291 \; map1 send symbol doublebuf1-pos \; map1 min 0 \; map1 max 500 \; map1 curve 1 \;, f 17;
#X text 221 405 try also stretch;
#X obj 254 94 print drone;
#X msg 39 389 \; map1 send symbol doublebuf1-transp \; map1 min -400 \; map1 max 400 \; map1 curve 1 \;, f 20;
#X msg 39 290 \; map2 send symbol doublebuf1-stretch \; map2 min 0.25 \; map2 max 5 \; map2 curve 1 \;, f 20;
#X msg 710 289 \; map7 send symbol doublebuf1-posvar \; map7 min 1 \; map7 max 1250 \; map7 curve 1 \;, f 20;
#X msg 880 277 \; map8 send symbol doublebuf1-pitchquant \; map8 min 0 \; map8 max 400 \; map8 curve 1 \;, f 25;
#X msg 715 181 \; map5 send symbol doublebuf1-density \; map5 min 1 \; map5 max 40 \; map5 curve 1 \;, f 20;
#X msg 883 165 \; map6 send symbol doublebuf1-dur \; map6 min 50 \; map6 max 1250 \; map6 curve 1 \;, f 20;
#X msg 678 381 \; map3 send symbol doublebuf1-durvar \; map3 min 0 \; map3 max 100 \; map3 curve 1 \;, f 20;
#X connect 0 0 1 0;
#X connect 1 0 3 0;
#X connect 1 0 8 0;
#X connect 1 0 7 0;
#X connect 1 0 6 0;
#X restore 34 387 pd drone;
#X msg 60 513 \; map9 send symbol raw-emg-gain \; map9 min 0 \; map9 max 2 \; map9 curve 1 \;;
#X obj 126 362 bng 19 250 50 0 empty empty empty 0 -10 0 12 #fcfcfc #000000 #000000;
#N canvas 20 386 435 520 slap 0;
#X obj 206 9 inlet;
#X obj 206 33 bng 19 250 50 0 empty empty empty 0 -10 0 12 #fcfcfc #000000 #000000;
#X msg 208 291 \; map1 send symbol doublebuf1-pos \; map1 min 0 \; map1 max 500 \; map1 curve 1 \;, f 17;
#X msg 39 94 \; doublebuf1-density 3 \; doublebuf1-metro 0 \; doublebuf1-freeze 0 \; doublebuf1-stretch 1 \; doublebuf1-stretchvar 0 \; doublebuf1-pos 0 \; doublebuf1-posvar 0 \; doublebuf1-dur 750 \; doublebuf1-durvar 0 \; doublebuf1-transp 0 \; doublebuf1-transpvar 0 \; doublebuf1-pitchquant 0 \;;
#X msg 39 290 \; map1 send symbol doublebuf1-density \; map1 min 3 \; map1 max 30 \; map1 curve 1 \;, f 20;
#X msg 39 389 \; map2 send symbol doublebuf1-dur \; map2 min 1000 \; map2 max 500 \; map2 curve 1 \;, f 20;
#X obj 292 93 print slap;
#X connect 0 0 1 0;
#X connect 1 0 3 0;
#X connect 1 0 4 0;
#X connect 1 0 5 0;
#X connect 1 0 6 0;
#X restore 126 386 pd slap;
#X obj 219 363 bng 19 250 50 0 empty empty empty 0 -10 0 12 #fcfcfc #000000 #000000;
#N canvas 20 396 426 516 figure 0;
#X obj 206 9 inlet;
#X obj 206 33 bng 19 250 50 0 empty empty empty 0 -10 0 12 #fcfcfc #000000 #000000;
#X msg 208 291 \; map1 send symbol doublebuf1-pos \; map1 min 0 \; map1 max 500 \; map1 curve 1 \;, f 17;
#X msg 39 290 \; map1 send symbol doublebuf1-metro \; map1 min 200 \; map1 max 30 \; map1 curve 1 \;, f 20;
#X msg 39 389 \; map2 send symbol doublebuf1-dur \; map2 min 900 \; map2 max 300 \; map2 curve 1 \;, f 20;
#X msg 39 94 \; doublebuf1-density 0 \; doublebuf1-metro 160 \; doublebuf1-freeze 0 \; doublebuf1-stretch 1.5 \; doublebuf1-stretchvar 0 \; doublebuf1-pos 0 \; doublebuf1-posvar 0 \; doublebuf1-dur 750 \; doublebuf1-durvar 0 \; doublebuf1-transp 0 \; doublebuf1-transpvar 0 \; doublebuf1-pitchquant 0 \;;
#X obj 263 134 print figure;
#X connect 0 0 1 0;
#X connect 1 0 5 0;
#X connect 1 0 4 0;
#X connect 1 0 2 0;
#X connect 1 0 6 0;
#X restore 219 387 pd figure;
#X obj 126 283 change;
#X obj 126 307 select 1;
#X obj 126 331 t b;
#X obj 219 282 change;
#X obj 219 306 select 1;
#X obj 219 330 t b;
#X connect 9 0 8 0;
#X connect 10 0 11 0;
#X connect 14 0 12 0;
#X connect 15 0 13 0;
#X connect 23 0 24 0;
#X connect 25 0 26 0;
#X connect 27 0 28 0;
#X connect 28 0 29 0;
#X connect 29 0 23 0;
#X connect 30 0 31 0;
#X connect 31 0 32 0;
#X connect 32 0 25 0;
#X restore 578 127 pd presets;
#X obj 120 107 bng 19 250 50 0 empty empty empty 0 -10 0 12 #fcfcfc #000000 #000000;
#X text 657 128 other presets, f 14;
#X obj 119 79 t b;
#X obj 49 76 loadbang;
#X obj 388 7 r button4;
#X obj 120 131 tgl 19 0 empty empty empty 0 -10 0 12 #fcfcfc #000000 #000000 0 1;
#X msg 49 100 0;
#X obj 120 155 s doublebuf1-freeze;
#N canvas 63 88 1047 312 cuelist 0;
#X obj 280 157 text define -k mycuelist;
#A set mycue 1 \; 300 mycue 2 \; 300 mycue 3 \;;
#X msg 248 127 line 0;
#X msg 167 127 auto;
#X msg 205 127 stop;
#X text 247 108 rewind;
#X obj 204 182 text sequence mycuelist -g -t 1 sec;
#X obj 167 53 change;
#X obj 167 77 select 1;
#X obj 167 101 t b b;
#N canvas 201 270 908 543 the-time 0;
#X obj 166 176 timer 1 sec;
#X floatatom 166 200 5 0 0 0 - - - 0;
#X obj 240 145 bng 19 250 50 0 empty empty empty 0 -10 0 12 #fcfcfc #000000 #000000;
#X obj 166 121 bng 19 250 50 0 empty empty empty 0 -10 0 12 #fcfcfc #000000 #000000;
#X obj 240 119 metro 1000;
#X obj 157 274 / 60;
#X obj 157 298 i;
#X floatatom 200 298 5 0 0 0 - - - 0;
#X floatatom 157 347 5 0 0 0 - - - 0;
#X obj 166 230 t f f;
#X obj 200 321 t b f;
#X obj 157 370 pack;
#X text 45 393 min / sec;
#X obj 250 419 list;
#X obj 250 395 bng 19 250 50 0 empty empty empty 0 -10 0 12 #fcfcfc #000000 #000000;
#X floatatom 250 297 5 0 0 0 - - - 0;
#X obj 250 320 select 0;
#X text 311 271 print every 10 sec;
#X obj 180 41 inlet;
#X obj 180 65 t b b;
#X msg 240 94 1;
#X obj 157 441 outlet;
#X obj 339 46 inlet;
#X msg 275 94 0;
#X obj 339 70 t b;
#X obj 250 273 mod 10;
#X obj 200 274 mod 60;
#X obj 250 473 print time;
#X obj 250 443 spigot;
#X obj 339 395 r verbose;
#X obj 339 419 tgl 19 0 empty empty empty 0 -10 0 12 #fcfcfc #000000 #000000 0 1;
#X connect 0 0 1 0;
#X connect 1 0 9 0;
#X connect 2 0 0 1;
#X connect 3 0 0 0;
#X connect 4 0 2 0;
#X connect 5 0 6 0;
#X connect 6 0 8 0;
#X connect 7 0 10 0;
#X connect 8 0 11 0;
#X connect 9 0 5 0;
#X connect 9 1 25 0;
#X connect 9 1 26 0;
#X connect 10 0 8 0;
#X connect 10 1 11 1;
#X connect 11 0 21 0;
#X connect 11 0 13 1;
#X connect 13 0 28 0;
#X connect 14 0 13 0;
#X connect 15 0 16 0;
#X connect 16 0 14 0;
#X connect 18 0 19 0;
#X connect 19 0 20 0;
#X connect 19 1 3 0;
#X connect 20 0 4 0;
#X connect 22 0 24 0;
#X connect 23 0 4 0;
#X connect 24 0 23 0;
#X connect 25 0 15 0;
#X connect 26 0 7 0;
#X connect 28 0 27 0;
#X connect 29 0 30 0;
#X connect 30 0 28 1;
#X restore 54 187 pd the-time;
#X msg 108 57 1;
#X obj 676 58 r mycue;
#X floatatom 675 85 5 0 0 0 - - - 0;
#X obj 676 193 select 1 2 3;
#X text 318 99 mycuelist keeps list of time (sec) and cue numbers, f 20;
#X text 774 188 cue numbers trigger presets for composition sections, f 28;
#X msg 128 164 stop;
#X obj 728 161 print mycue;
#X obj 626 68 f;
#X obj 626 92 + 1;
#X obj 625 41 bng 19 250 50 0 empty empty empty 0 -10 0 12 #fcfcfc #000000 #000000;
#X obj 675 108 select 4;
#X msg 675 132 1;
#X connect 1 0 5 0;
#X connect 2 0 5 0;
#X connect 3 0 5 0;
#X connect 6 0 7 0;
#X connect 7 0 8 0;
#X connect 8 0 2 0;
#X connect 8 0 9 0;
#X connect 8 1 1 0;
#X connect 10 0 7 0;
#X connect 11 0 12 0;
#X connect 12 0 21 0;
#X connect 16 0 9 1;
#X connect 18 0 19 0;
#X connect 19 0 12 0;
#X connect 20 0 18 0;
#X connect 21 0 22 0;
#X connect 21 1 17 0;
#X connect 21 1 13 0;
#X connect 21 1 18 1;
#X connect 22 0 17 0;
#X connect 22 0 13 0;
#X connect 22 0 18 1;
#X restore 577 102 pd cuelist;
#N canvas 92 117 889 854 emg-mod 0;
#X msg 349 743 \; map10 send symbol wetdry \; map10 min -1 \; map10 max 1 \; map10 curve 1 \;;
#X obj 70 210 loadbang;
#X obj 71 235 bng 19 250 50 0 empty empty empty 0 -10 0 12 #fcfcfc #000000 #000000;
#X msg 150 535 \; map5 send symbol doublebuf1-metro \; map5 min 1000 \; map5 max 100 \; map5 curve 0.5 \;, f 20;
#X msg 350 535 \; map6 send symbol doublebuf1-durvar \; map6 min 0 \; map6 max 100 \; map6 curve 1 \;;
#X msg 350 632 \; map8 send symbol doublebuf1-stretchvar \; map8 min 0 \; map8 max 100 \; map8 curve 1 \;;
#X msg 150 632 \; map7 send symbol doublebuf1-transpvar \; map7 min 0 \; map7 max 400 \; map7 curve 1.5 \;, f 20;
#X msg 150 743 \; map9 send symbol doublebuf1-pitchquant \; map9 min 0 \; map9 max 400 \; map9 curve 1 \;, f 25;
#X obj 349 194 sel 0 1;
#X obj 349 218 bng 19 250 50 0 empty empty empty 0 -10 0 12 #fcfcfc #000000 #000000;
#X obj 372 218 bng 19 250 50 0 empty empty empty 0 -10 0 12 #fcfcfc #000000 #000000;
#X obj 192 113 r doublebuf1-freeze;
#X msg 651 632 \; map8 send symbol doublebuf1-posvar \; map8 min 1 \; map8 max 2500 \; map8 curve 2 \;, f 20;
#X msg 221 275 \; map1 send symbol doublebuf1-transp \; map1 min -400 \; map1 max 400 \; map1 curve 1 \;, f 20;
#X msg 388 275 \; map2 send symbol doublebuf1-stretch \; map2 min 0.25 \; map2 max 5 \; map2 curve 1 \;, f 20;
#X msg 564 275 \; map2 send symbol doublebuf1-pos \; map2 min 0 \; map2 max 2499 \; map2 curve 1 \;, f 20;
#X msg 388 379 \; map4 send symbol doublebuf1-density \; map4 min 1 \; map4 max 40 \; map4 curve 1.5 \;, f 20;
#X msg 221 379 \; map3 send symbol doublebuf1-dur \; map3 min 2000 \; map3 max 100 \; map3 curve 0.5 \;, f 19;
#X obj 96 236 bng 19 250 50 0 empty empty empty 0 -10 0 12 #fcfcfc #000000 #000000;
#X text 222 236 EMG 1-4, f 14;
#X text 155 511 KNOBS 3-8, f 14;
#X text 571 247 Modulate pos/posvar in Freeze mode;
#X text 433 229 Modulate stretch/stretchvar in Play mode;
#X obj 294 168 spigot;
#X obj 333 112 tgl 19 0 empty empty empty 0 -10 0 12 #fcfcfc #000000 #000000 0 1;
#X msg 333 88 1;
#X msg 369 89 0;
#X obj 349 168 i;
#X obj 349 140 sel 1;
#X obj 51 15 inlet;
#X obj 51 39 t b b b;
#X obj 369 15 inlet;
#X connect 1 0 2 0;
#X connect 1 0 18 0;
#X connect 2 0 4 0;
#X connect 2 0 6 0;
#X connect 2 0 3 0;
#X connect 2 0 0 0;
#X connect 2 0 7 0;
#X connect 2 0 5 0;
#X connect 8 0 9 0;
#X connect 8 1 10 0;
#X connect 9 0 5 0;
#X connect 9 0 14 0;
#X connect 10 0 12 0;
#X connect 10 0 15 0;
#X connect 11 0 23 0;
#X connect 11 0 27 1;
#X connect 18 0 13 0;
#X connect 18 0 14 0;
#X connect 18 0 17 0;
#X connect 18 0 16 0;
#X connect 23 0 8 0;
#X connect 24 0 23 1;
#X connect 24 0 28 0;
#X connect 25 0 24 0;
#X connect 26 0 24 0;
#X connect 27 0 8 0;
#X connect 28 0 27 0;
#X connect 29 0 30 0;
#X connect 30 0 25 0;
#X connect 30 1 2 0;
#X connect 30 2 18 0;
#X connect 31 0 26 0;
#X restore 295 187 pd emg-mod;
#X obj 295 108 bng 19 250 50 0 empty empty empty 0 -10 0 12 #fcfcfc #000000 #000000;
#X obj 295 31 change;
#X obj 295 55 select 1;
#X obj 388 108 bng 19 250 50 0 empty empty empty 0 -10 0 12 #fcfcfc #000000 #000000;
#X obj 388 31 change;
#X obj 388 55 select 1;
#X obj 388 136 t b b;
#X obj 295 136 t b b;
#X obj 475 61 loadbang;
#N canvas 1663 331 897 984 init-map 0;
#X obj 71 309 loadbang;
#X obj 72 334 bng 19 250 50 0 empty empty empty 0 -10 0 12 #fcfcfc #000000 #000000;
#X msg 150 820 \; map9 send symbol doublebuf1-pitchquant \; map9 min 0 \; map9 max 400 \; map9 curve 1 \;, f 25;
#X obj 349 194 sel 0 1;
#X obj 349 295 bng 19 250 50 0 empty empty empty 0 -10 0 12 #fcfcfc #000000 #000000;
#X obj 372 295 bng 19 250 50 0 empty empty empty 0 -10 0 12 #fcfcfc #000000 #000000;
#X obj 192 113 r doublebuf1-freeze;
#X obj 97 335 bng 19 250 50 0 empty empty empty 0 -10 0 12 #fcfcfc #000000 #000000;
#X text 222 313 EMG 1-4, f 14;
#X text 155 588 KNOBS 3-8, f 14;
#X text 571 324 Modulate pos/posvar in Freeze mode;
#X text 433 306 Modulate stretch/stretchvar in Play mode;
#X obj 294 168 spigot;
#X obj 333 112 tgl 19 0 empty empty empty 0 -10 0 12 #fcfcfc #000000 #000000 0 1;
#X msg 333 88 1;
#X msg 369 89 0;
#X obj 349 168 i;
#X obj 349 140 sel 1;
#X obj 51 15 inlet;
#X obj 51 39 t b b b;
#X obj 369 15 inlet;
#X msg 221 352 \; map1 send symbol nil \; map1 min -400 \; map1 max 400 \; map1 curve 1 \;;
#X msg 388 352 \; map2 send symbol nil \; map2 min 0.25 \; map2 max 5 \; map2 curve 1 \;;
#X msg 564 352 \; map2 send symbol nil \; map2 min 0 \; map2 max 2499 \; map2 curve 1 \;;
#X msg 221 456 \; map3 send symbol nil \; map3 min 2000 \; map3 max 100 \; map3 curve 0.5 \;;
#X msg 388 456 \; map4 send symbol nil \; map4 min 1 \; map4 max 40 \; map4 curve 1.5 \;;
#X msg 20 152 \; doublebuf1-metro 500 \; doublebuf1-freeze 0 \; doublebuf1-stretchvar 100 \; doublebuf1-posvar 2500 \; doublebuf1-dur 1000 \; doublebuf1-durvar 80 \; doublebuf1-transpvar 100 \;;
#X msg 150 612 \; map5 send symbol doublebuf1-density \; map5 min 0 \; map5 max 40 \; map5 curve 2 \;, f 20;
#X msg 747 415 \; map7 send symbol doublebuf1-transp \; map7 min -400 \; map7 max 400 \; map7 curve 1 \;, f 20;
#X msg 350 709 \; map8 send symbol doublebuf1-stretch \; map8 min 0.1 \; map8 max 4 \; map8 curve 2 \;;
#X msg 651 709 \; map8 send symbol doublebuf1-pos \; map8 min 1 \; map8 max 2500 \; map8 curve 1 \;, f 20;
#X msg 350 612 \; map6 send symbol doublebuf1-metro \; map6 min 1000 \; map6 max 10 \; map6 curve 0.3 \;;
#X msg 105 708 \; map7 send symbol doublebuf1-dur \; map7 min 100 \; map7 max 2000 \; map7 curve 2 \;;
#X msg 349 820 \; map10 send symbol doublebuf1-transp \; map10 min -1200 \; map10 max 1200 \; map10 curve 1 \;;
#X connect 0 0 1 0;
#X connect 0 0 7 0;
#X connect 1 0 31 0;
#X connect 1 0 27 0;
#X connect 1 0 33 0;
#X connect 1 0 2 0;
#X connect 1 0 29 0;
#X connect 1 0 32 0;
#X connect 3 0 4 0;
#X connect 3 1 5 0;
#X connect 4 0 29 0;
#X connect 4 0 22 0;
#X connect 5 0 30 0;
#X connect 5 0 23 0;
#X connect 6 0 12 0;
#X connect 6 0 16 1;
#X connect 7 0 21 0;
#X connect 7 0 22 0;
#X connect 7 0 24 0;
#X connect 7 0 25 0;
#X connect 12 0 3 0;
#X connect 13 0 12 1;
#X connect 13 0 17 0;
#X connect 14 0 13 0;
#X connect 15 0 13 0;
#X connect 16 0 3 0;
#X connect 17 0 16 0;
#X connect 18 0 19 0;
#X connect 19 0 14 0;
#X connect 19 0 26 0;
#X connect 19 1 1 0;
#X connect 19 2 7 0;
#X connect 20 0 15 0;
#X restore 388 187 pd init-map;
#X obj 295 7 r button3;
#X connect 1 0 6 0;
#X connect 3 0 1 0;
#X connect 4 0 7 0;
#X connect 5 0 15 0;
#X connect 6 0 8 0;
#X connect 7 0 6 0;
#X connect 11 0 18 0;
#X connect 12 0 13 0;
#X connect 13 0 11 0;
#X connect 14 0 17 0;
#X connect 15 0 16 0;
#X connect 16 0 14 0;
#X connect 17 0 20 0;
#X connect 17 1 10 1;
#X connect 18 0 10 0;
#X connect 18 1 20 1;
#X connect 19 0 14 0;
#X connect 21 0 12 0;
#X restore 476 269 pd mappings;
#X text 851 514 dry/wet (r wetdry);
#X text 855 534 pan (r pan);
#X text 833 619 (r gain);
#X text 836 269 map1-10;
#X text 558 25 Knob 1 (0) : EMG gain 1-4 (1-20x);
#X text 558 40 Knob 2 (1) : EMG smoothing (1-400ms);
#X obj 367 125 bela-knobs-leds-4emg, f 25;
#X text 866 59 Knob 5(4) = dur;
#X text 1027 59 Knob 6(5) = durvar;
#X text 1028 90 Knob 8 = dry/wet;
#X text 866 90 Knob 7 = density;
#X text 739 342 |- - PLAY - | - FREEZE - -|;
#X obj 534 421 cloud-player2 doublebuf1;
#X obj 186 382 _sampleplayer;
#X floatatom 230 408 5 0 0 0 - - - 0;
#X floatatom 274 408 5 0 0 0 - - - 0;
#X text 230 426 samp;
#X text 274 426 loop;
#X text 866 25 Knob 3(cv2) = density;
#X obj 186 357 tgl 19 0 empty empty empty 0 -10 0 12 #fcfcfc #000000 #000000 0 1;
#X text 211 355 pause (0)/play (1);
#X msg 6 336 set 1;
#X obj 6 311 loadbang;
#X text 243 159 Button 1 = reconnecct BLE;
#X obj 70 287 change;
#X obj 70 311 select 1;
#X obj 70 263 r button2;
#X text 243 182 Button 2 = play/stop sampleplayer;
#X text 244 204 Button 3 = with EMG;
#X text 244 226 Button 4 = initial mapping;
#X text 1027 26 Knob 4(3) = metro;
#X obj 152 142 loadbang;
#X obj 33 97 declare -path sounds;
#X obj 33 76 declare -path lib;
#X connect 2 0 1 0;
#X connect 3 0 37 5;
#X connect 4 0 37 6;
#X connect 7 0 37 7;
#X connect 8 0 37 8;
#X connect 12 0 37 3;
#X connect 13 0 37 4;
#X connect 14 0 102 6;
#X connect 15 0 37 2;
#X connect 16 0 37 9;
#X connect 18 0 37 1;
#X connect 19 0 37 0;
#X connect 24 0 108 1;
#X connect 25 0 108 0;
#X connect 34 0 72 2;
#X connect 34 1 72 3;
#X connect 35 0 34 0;
#X connect 36 0 34 0;
#X connect 37 0 19 0;
#X connect 37 1 18 0;
#X connect 37 2 15 0;
#X connect 37 3 12 0;
#X connect 37 4 13 0;
#X connect 37 5 3 0;
#X connect 37 6 4 0;
#X connect 37 7 7 0;
#X connect 37 8 8 0;
#X connect 37 9 16 0;
#X connect 41 0 74 0;
#X connect 41 0 102 2;
#X connect 41 1 75 0;
#X connect 41 1 102 3;
#X connect 41 2 76 0;
#X connect 41 2 102 4;
#X connect 41 3 77 0;
#X connect 41 3 102 5;
#X connect 45 0 52 0;
#X connect 46 0 53 0;
#X connect 50 0 45 0;
#X connect 50 1 46 0;
#X connect 55 0 54 0;
#X connect 56 0 41 0;
#X connect 57 0 41 1;
#X connect 60 0 72 0;
#X connect 60 0 72 1;
#X connect 62 0 63 0;
#X connect 64 0 102 0;
#X connect 66 0 73 0;
#X connect 68 0 69 0;
#X connect 69 0 72 6;
#X connect 70 0 72 4;
#X connect 71 0 72 5;
#X connect 72 0 65 0;
#X connect 72 1 67 0;
#X connect 72 2 88 0;
#X connect 72 3 88 1;
#X connect 73 0 68 0;
#X connect 74 0 80 0;
#X connect 75 0 80 1;
#X connect 76 0 80 2;
#X connect 77 0 80 3;
#X connect 78 0 80 4;
#X connect 79 0 80 5;
#X connect 81 0 78 0;
#X connect 82 0 79 0;
#X connect 83 0 80 6;
#X connect 84 0 80 7;
#X connect 85 0 83 0;
#X connect 86 0 84 0;
#X connect 87 0 102 1;
#X connect 91 0 80 8;
#X connect 92 0 80 9;
#X connect 93 0 91 0;
#X connect 94 0 92 0;
#X connect 108 0 25 0;
#X connect 108 1 24 0;
#X connect 108 2 21 0;
#X connect 108 3 6 0;
#X connect 108 4 10 0;
#X connect 109 0 52 0;
#X connect 109 0 53 0;
#X connect 109 1 110 0;
#X connect 109 2 111 0;
#X connect 115 0 109 0;
#X connect 117 0 115 0;
#X connect 118 0 117 0;
#X connect 120 0 121 0;
#X connect 121 0 115 0;
#X connect 122 0 120 0;
#X connect 127 0 62 0;
#X coords 0 0 1 1 85 60 0;
