#N canvas 69 509 502 371 12;
#X obj 37 37 array define playplay;
#X obj 121 169 array size playplay;
#X obj 117 127 bng 19 250 50 0 empty empty empty 0 -10 0 12 #fcfcfc #000000 #000000;
#X floatatom 121 193 5 0 0 0 - - - 0;
#X obj 121 216 print;
#X msg 164 123 271255;
#X obj 119 71 loadbang;
#X obj 292 216 / 1000;
#X obj 292 240 osc~;
#X obj 292 264 *~ 0.1;
#X obj 273 301 dac~;
#X msg 37 133 \; pd dsp 1;
#X connect 1 0 3 0;
#X connect 2 0 1 0;
#X connect 3 0 4 0;
#X connect 3 0 7 0;
#X connect 5 0 1 0;
#X connect 6 0 5 0;
#X connect 6 0 2 0;
#X connect 6 0 11 0;
#X connect 7 0 8 0;
#X connect 8 0 9 0;
#X connect 9 0 10 0;
#X connect 9 0 10 1;
