#N canvas 426 167 1036 552 12;
#X declare -path .;
#X declare -path lib;
#X obj 9 209 osc~;
#X obj 151 485 dac~;
#X msg 87 105 200;
#X obj 175 26 loadbang;
#X obj 182 170 adc~;
#X obj 103 281 +~;
#X obj 282 242 midiin;
#X obj 292 282 print;
#X obj 326 26 bng 20 250 50 0 empty empty empty 0 -10 0 12 #fcfcfc #000000 #000000;
#X msg 220 103 \; pd dsp 1;
#X obj 389 96 bendin 1;
#X floatatom 389 121 5 0 0 0 - - - 0;
#X floatatom 468 121 5 0 0 0 - - - 0;
#X obj 468 96 bendin 2;
#X obj 24 20 declare -path .;
#X obj 25 45 declare -path lib;
#X obj 468 145 range14;
#X obj 468 170 eavi-rms;
#X floatatom 468 195 5 0 0 0 - - - 0;
#X obj 468 221 vsl 20 170 0 1 0 0 empty empty empty 0 -9 0 12 #fcfcfc #000000 #000000 0 1;
#X floatatom 883 148 5 0 0 0 - - - 0;
#X floatatom 839 147 5 0 0 0 - - - 0;
#X floatatom 544 120 5 0 0 0 - - - 0;
#X obj 544 144 range14;
#X obj 544 169 eavi-rms;
#X floatatom 544 194 5 0 0 0 - - - 0;
#X obj 544 220 vsl 20 170 0 1 0 0 empty empty empty 0 -9 0 12 #fcfcfc #000000 #000000 0 1;
#X obj 544 95 bendin 3;
#X floatatom 628 119 5 0 0 0 - - - 0;
#X obj 628 143 range14;
#X obj 628 168 eavi-rms;
#X floatatom 628 193 5 0 0 0 - - - 0;
#X obj 628 219 vsl 20 170 0 1 0 0 empty empty empty 0 -9 0 12 #fcfcfc #000000 #000000 0 1;
#X floatatom 704 118 5 0 0 0 - - - 0;
#X obj 704 142 range14;
#X obj 704 167 eavi-rms;
#X floatatom 704 192 5 0 0 0 - - - 0;
#X obj 704 218 vsl 20 170 0 1 0 0 empty empty empty 0 -9 0 12 #fcfcfc #000000 #000000 0 1;
#X obj 628 94 bendin 4;
#X obj 704 93 bendin 5;
#X obj 856 73 loadbang;
#X msg 856 98 25;
#X msg 896 97 1;
#X obj 468 424 + 200;
#X obj 468 399 * 500;
#X obj 80 209 osc~;
#X obj 546 400 * 600;
#X obj 546 425 + 100;
#X obj 61 370 osc~;
#X obj 155 442 +~;
#X obj 132 370 osc~;
#X obj 627 401 * 1000;
#X obj 627 426 + 50;
#X obj 705 402 * 1300;
#X obj 705 427 + 60;
#X floatatom 280 184 5 0 0 0 - - - 0;
#X obj 8 244 *~ 0.1;
#X obj 79 244 *~ 0.1;
#X obj 60 405 *~ 0.1;
#X obj 131 405 *~ 0.1;
#X connect 0 0 56 0;
#X connect 2 0 0 0;
#X connect 2 0 7 0;
#X connect 3 0 2 0;
#X connect 3 0 9 0;
#X connect 4 0 5 1;
#X connect 4 1 5 1;
#X connect 5 0 49 1;
#X connect 8 0 2 0;
#X connect 8 0 9 0;
#X connect 10 0 11 0;
#X connect 12 0 16 0;
#X connect 13 0 12 0;
#X connect 16 0 17 0;
#X connect 17 0 18 0;
#X connect 18 0 19 0;
#X connect 19 0 44 0;
#X connect 20 0 17 3;
#X connect 20 0 24 3;
#X connect 20 0 30 3;
#X connect 20 0 35 3;
#X connect 21 0 17 1;
#X connect 21 0 24 1;
#X connect 21 0 30 1;
#X connect 21 0 35 1;
#X connect 22 0 23 0;
#X connect 23 0 24 0;
#X connect 24 0 25 0;
#X connect 25 0 26 0;
#X connect 26 0 46 0;
#X connect 27 0 22 0;
#X connect 28 0 29 0;
#X connect 29 0 30 0;
#X connect 30 0 31 0;
#X connect 31 0 32 0;
#X connect 32 0 51 0;
#X connect 33 0 34 0;
#X connect 34 0 35 0;
#X connect 35 0 36 0;
#X connect 36 0 37 0;
#X connect 37 0 53 0;
#X connect 38 0 28 0;
#X connect 39 0 33 0;
#X connect 40 0 41 0;
#X connect 40 0 42 0;
#X connect 41 0 21 0;
#X connect 42 0 20 0;
#X connect 43 0 0 0;
#X connect 44 0 43 0;
#X connect 45 0 57 0;
#X connect 46 0 47 0;
#X connect 47 0 45 0;
#X connect 48 0 58 0;
#X connect 49 0 1 0;
#X connect 49 0 1 1;
#X connect 50 0 59 0;
#X connect 51 0 52 0;
#X connect 52 0 48 0;
#X connect 53 0 54 0;
#X connect 54 0 50 0;
#X connect 55 0 56 1;
#X connect 55 0 57 1;
#X connect 55 0 58 1;
#X connect 55 0 59 1;
#X connect 56 0 5 0;
#X connect 57 0 5 0;
#X connect 58 0 49 0;
#X connect 59 0 49 0;
