#N canvas 0 193 511 434 12;
#X obj 103 163 osc~;
#X obj 101 327 dac~;
#X msg 87 105 200;
#X obj 175 26 loadbang;
#X obj 88 241 *~ 0.03;
#X obj 182 170 adc~;
#X obj 165 238 *~ 0.1;
#X obj 103 281 +~;
#X obj 282 242 midiin;
#X obj 304 351 print;
#X obj 326 26 bng 20 250 50 0 empty empty empty 0 -10 0 12 #fcfcfc #000000 #000000;
#X msg 220 103 \; pd dsp 1;
#X connect 0 0 4 0;
#X connect 2 0 0 0;
#X connect 2 0 9 0;
#X connect 3 0 2 0;
#X connect 3 0 11 0;
#X connect 4 0 7 0;
#X connect 5 0 6 0;
#X connect 6 0 7 1;
#X connect 7 0 1 0;
#X connect 7 0 1 1;
#X connect 8 0 9 0;
#X connect 8 1 9 0;
#X connect 10 0 2 0;
#X connect 10 0 11 0;
