#N canvas 245 327 832 812 12;
#N canvas 0 22 450 300 (subpatch) 0;
#X array playobject 523766 float 0;
#X coords 0 1 523765 -1 200 140 1;
#X restore 331 445 graph;
#N canvas 497 868 957 483 sampleloader 0;
#X obj 803 174 s raw_length;
#X obj 721 168 r rndm;
#X obj 690 258 s sample_length;
#X obj 696 69 soundfiler;
#X obj 690 226 -;
#X obj 722 190 t b f;
#X obj 663 165 f;
#X msg 696 38 read -resize mouse.wav playobject;
#X obj 627 36 r sfiler;
#X obj 298 46 inlet;
#X obj 636 344 list split 2;
#X obj 676 372 list split 1;
#X msg 676 398 set \$1;
#X obj 676 424 outlet;
#X obj 636 317 r sfiler;
#X obj 297 111 select 0 1 2 3 4 5;
#X obj 291 310 s sfiler;
#X floatatom 297 88 5 0 0 0 - - - 0;
#X text 175 90 load in sample #;
#X text 9 225 TRIANGLE WINDOW HERE;
#X obj 210 45 r loadbang;
#X msg 210 69 1;
#X obj 696 102 sampstoms;
#X msg 296 142 read -resize 01.wav playobject;
#X msg 316 174 read -resize 02.wav playobject;
#X msg 339 208 read -resize 03.wav playobject;
#X msg 358 240 read -resize 04.wav playobject;
#X msg 379 273 read -resize 05.wav playobject;
#X text 11 244 pd windowstuff removed;
#X text 12 262 uses pd triangle-window in main patch;
#X connect 1 0 5 0;
#X connect 3 0 22 0;
#X connect 4 0 2 0;
#X connect 5 0 6 0;
#X connect 5 1 4 1;
#X connect 6 0 4 0;
#X connect 7 0 3 0;
#X connect 8 0 3 0;
#X connect 9 0 17 0;
#X connect 10 1 11 0;
#X connect 11 0 12 0;
#X connect 12 0 13 0;
#X connect 14 0 10 0;
#X connect 15 0 23 0;
#X connect 15 1 24 0;
#X connect 15 2 25 0;
#X connect 15 3 26 0;
#X connect 15 4 27 0;
#X connect 17 0 15 0;
#X connect 20 0 21 0;
#X connect 21 0 17 0;
#X connect 22 0 6 1;
#X connect 22 0 0 0;
#X connect 22 0 4 0;
#X connect 23 0 16 0;
#X connect 24 0 16 0;
#X connect 25 0 16 0;
#X connect 26 0 16 0;
#X connect 27 0 16 0;
#X restore 198 308 pd sampleloader;
#X floatatom 166 255 5 0 0 0 - - - 0;
#X text 44 257 load in sample #;
#X msg 166 233 0;
#X msg 197 233 1;
#X msg 231 233 2;
#X msg 262 233 3;
#X text 43 233 CLICK to select;
#X msg 293 233 4;
#X obj 168 636 tabread~ playobject;
#X obj 322 357 samplerate~;
#X obj 322 333 loadbang;
#X floatatom 116 549 5 0 0 0 - - - 0;
#X obj 249 570 snapshot~;
#X obj 249 541 metro 10;
#X obj 249 512 tgl 19 0 empty empty empty 0 -10 0 12 #fcfcfc #000000 #000000 0 1;
#X obj 168 550 phasor~ 20;
#X obj 168 607 *~ 361392;
#X obj 166 333 array size playobject;
#X floatatom 166 357 12 0 0 0 - - - 0;
#X obj 166 380 / 44100;
#X floatatom 166 404 5 0 0 0 - - - 0;
#X floatatom 166 451 5 0 0 0 - - - 0;
#X obj 166 427 expr 1/$f1;
#X obj 334 589 hsl 195 19 0 1 0 0 empty empty empty -2 -10 0 12 #fcfcfc #000000 #000000 0 1;
#X obj 249 488 loadbang;
#X obj 168 670 outlet~;
#X obj 450 273 i;
#X obj 450 297 + 1;
#X obj 451 326 moses 5;
#X msg 497 352 0;
#N canvas 1214 561 479 457 period4 0;
#X obj 164 35 inlet;
#X obj 212 348 outlet;
#X obj 165 77 > 0.99;
#X obj 165 101 change;
#X obj 165 126 tgl 19 0 empty empty empty 0 -10 0 12 #fcfcfc #000000 #000000 0 1;
#X obj 165 150 select 1;
#X obj 165 206 i;
#X obj 165 230 + 1;
#X obj 166 259 moses 5;
#X floatatom 166 283 5 0 0 0 - - - 0;
#X msg 212 285 1;
#X obj 166 348 outlet;
#X text 232 77 detect top of phasor cycle;
#X text 241 151 trigger counter;
#X text 244 228 count from 1-4;
#X text 76 349 cycle number;
#X obj 212 320 select 1;
#X text 263 349 bang after 4th round;
#X connect 0 0 2 0;
#X connect 2 0 3 0;
#X connect 3 0 4 0;
#X connect 4 0 5 0;
#X connect 5 0 6 0;
#X connect 6 0 7 0;
#X connect 7 0 8 0;
#X connect 8 0 9 0;
#X connect 8 1 10 0;
#X connect 9 0 6 1;
#X connect 9 0 11 0;
#X connect 10 0 9 0;
#X connect 10 0 16 0;
#X connect 16 0 1 0;
#X restore 541 608 pd period4;
#X floatatom 541 632 5 0 0 0 - - - 0;
#N canvas 927 865 451 299 counter0-4 0;
#X obj 42 23 inlet;
#X obj 42 74 i;
#X obj 42 98 + 1;
#X obj 43 127 moses 5;
#X msg 89 153 0;
#X obj 60 49 inlet;
#X text 115 22 bang to count up;
#X text 117 49 store current number;
#X obj 69 230 outlet;
#X text 124 155 if it goes above 4 \, set it to 0;
#X connect 0 0 1 0;
#X connect 1 0 2 0;
#X connect 2 0 3 0;
#X connect 3 0 8 0;
#X connect 3 1 4 0;
#X connect 4 0 8 0;
#X connect 5 0 1 1;
#X restore 604 234 pd counter0-4;
#X obj 358 670 outlet;
#X obj 541 670 outlet;
#X obj 166 284 t b f;
#X obj 149 488 f;
#X obj 116 135 tgl 19 0 empty empty empty 0 -10 0 12 #fcfcfc #000000 #000000 0 1;
#X obj 116 159 select 0 1;
#X msg 116 183 0;
#X text 143 132 pause (0)/play (1);
#X obj 116 108 inlet;
#X obj 284 79 loadbang;
#X connect 2 0 28 1;
#X connect 2 0 34 1;
#X connect 2 0 37 0;
#X connect 4 0 2 0;
#X connect 5 0 2 0;
#X connect 6 0 2 0;
#X connect 7 0 2 0;
#X connect 9 0 2 0;
#X connect 10 0 27 0;
#X connect 11 0 21 1;
#X connect 12 0 11 0;
#X connect 13 0 17 0;
#X connect 14 0 25 0;
#X connect 15 0 14 0;
#X connect 16 0 15 0;
#X connect 17 0 14 0;
#X connect 17 0 18 0;
#X connect 18 0 10 0;
#X connect 19 0 20 0;
#X connect 20 0 21 0;
#X connect 20 0 18 1;
#X connect 21 0 22 0;
#X connect 22 0 24 0;
#X connect 23 0 17 0;
#X connect 23 0 38 1;
#X connect 24 0 23 0;
#X connect 25 0 32 0;
#X connect 26 0 16 0;
#X connect 28 0 29 0;
#X connect 29 0 30 0;
#X connect 30 0 2 0;
#X connect 30 1 31 0;
#X connect 31 0 2 0;
#X connect 32 0 33 0;
#X connect 32 1 34 0;
#X connect 33 0 36 0;
#X connect 34 0 2 0;
#X connect 37 0 19 0;
#X connect 37 1 1 0;
#X connect 37 1 35 0;
#X connect 38 0 13 0;
#X connect 39 0 40 0;
#X connect 40 0 41 0;
#X connect 40 1 38 0;
#X connect 40 1 4 0;
#X connect 41 0 13 0;
#X connect 43 0 39 0;
#X connect 44 0 39 0;
