#N canvas 382 419 1070 222 12;
#X obj 354 122 outlet;
#X obj 431 122 outlet;
#X obj 530 122 outlet;
#X obj 607 122 outlet;
#X obj 705 122 outlet;
#X obj 803 122 outlet;
#X obj 123 122 outlet;
#X obj 123 71 inlet;
#X text 15 40 Play (0);
#X text 14 51 Freeze (1);
#X obj 25 71 inlet;
#X obj 25 122 outlet;
#X obj 354 71 inlet;
#X obj 431 71 inlet;
#X obj 530 71 inlet;
#X obj 607 71 inlet;
#X obj 705 71 inlet;
#X obj 803 71 inlet;
#X obj 228 122 outlet;
#X obj 228 71 inlet;
#X obj 922 122 outlet;
#X obj 922 71 inlet;
#X obj 25 97 s-r \$1-freeze;
#X obj 123 97 s-r \$1-stretch;
#X obj 228 97 s-r \$1-stretchvar;
#X obj 354 97 s-r \$1-pos;
#X obj 431 97 s-r \$1-posvar;
#X obj 530 97 s-r \$1-dur;
#X obj 607 97 s-r \$1-durvar;
#X obj 705 97 s-r \$1-transp;
#X obj 803 97 s-r \$1-transpvar;
#X obj 922 97 s-r \$1-pitchquant;
#X connect 7 0 23 0;
#X connect 10 0 22 0;
#X connect 12 0 25 0;
#X connect 13 0 26 0;
#X connect 14 0 27 0;
#X connect 15 0 28 0;
#X connect 16 0 29 0;
#X connect 17 0 30 0;
#X connect 19 0 24 0;
#X connect 21 0 31 0;
#X connect 22 0 11 0;
#X connect 23 0 6 0;
#X connect 24 0 18 0;
#X connect 25 0 0 0;
#X connect 26 0 1 0;
#X connect 27 0 2 0;
#X connect 28 0 3 0;
#X connect 29 0 4 0;
#X connect 30 0 5 0;
#X connect 31 0 20 0;
