#N canvas 353 390 504 282 12;
#N canvas 63 100 673 285 viewer 0;
#X obj 238 65 inlet;
#X obj 259 242 outlet;
#X obj 238 89 t b f;
#X obj 238 113 tgl 19 0 empty empty empty 0 -10 0 12 #fcfcfc #000000 #000000 0 1;
#X obj 238 137 pack;
#X msg 437 138 vis 2 0;
#X msg 437 164 vis 3 0;
#X msg 438 81 vis 0 0;
#X msg 438 107 vis 1 0;
#X msg 238 161 vis \$2 \$1;
#X msg 501 81 vis 4 0;
#X msg 501 107 vis 5 0;
#X msg 500 138 vis 6 0;
#X msg 500 164 vis 7 0;
#X msg 569 81 vis 8 0;
#X msg 569 107 vis 9 0;
#X msg 568 138 vis 10 0;
#X msg 568 164 vis 11 0;
#X obj 490 23 inlet;
#X obj 490 47 bng 19 250 50 0 empty empty empty 0 -10 0 12 #fcfcfc #000000 #000000;
#X text 539 25 close all;
#X msg 70 95 vis 0 1;
#X msg 70 121 vis 1 1;
#X msg 69 152 vis 2 1;
#X msg 69 178 vis 3 1;
#X connect 0 0 2 0;
#X connect 2 0 3 0;
#X connect 2 1 4 1;
#X connect 3 0 4 0;
#X connect 4 0 9 0;
#X connect 5 0 1 0;
#X connect 6 0 1 0;
#X connect 7 0 1 0;
#X connect 8 0 1 0;
#X connect 9 0 1 0;
#X connect 10 0 1 0;
#X connect 11 0 1 0;
#X connect 12 0 1 0;
#X connect 13 0 1 0;
#X connect 14 0 1 0;
#X connect 15 0 1 0;
#X connect 16 0 1 0;
#X connect 17 0 1 0;
#X connect 18 0 19 0;
#X connect 19 0 6 0;
#X connect 19 0 5 0;
#X connect 19 0 8 0;
#X connect 19 0 7 0;
#X connect 19 0 13 0;
#X connect 19 0 12 0;
#X connect 19 0 11 0;
#X connect 19 0 10 0;
#X connect 19 0 17 0;
#X connect 19 0 16 0;
#X connect 19 0 15 0;
#X connect 19 0 14 0;
#X connect 21 0 1 0;
#X connect 22 0 1 0;
#X connect 23 0 1 0;
#X connect 24 0 1 0;
#X restore 184 157 pd viewer;
#X text 270 159 upon overflow \, pass play message to next instance, f 18;
#X text 18 154 GRAIN CLOUD ENGINE, f 9;
#X floatatom 184 133 5 0 11 0 - - - 0;
#X obj 243 133 bng 19 250 50 0 empty empty empty 0 -10 0 12 #fcfcfc #000000 #000000;
#X text 185 102 open 0-11, f 5;
#X text 239 102 close all, f 6;
#N canvas 498 535 450 300 overflow 0;
#X obj 78 50 list split 1;
#X obj 78 77 + 1;
#X obj 78 104 list;
#X text 123 74 upon overflow \, pass play message to next instance, f 30;
#X obj 78 21 inlet;
#X obj 78 131 route 12;
#X obj 130 178 outlet;
#X obj 204 181 outlet;
#X text 77 207 next instance trigger msg, f 15;
#X text 203 207 overflow all instances, f 14;
#X connect 0 0 1 0;
#X connect 0 1 2 1;
#X connect 1 0 2 0;
#X connect 2 0 5 0;
#X connect 4 0 0 0;
#X connect 5 0 7 0;
#X connect 5 1 6 0;
#X restore 256 207 pd overflow;
#X obj 330 231 bng 19 250 50 0 empty empty empty 0 -10 0 12 #fcfcfc #000000 #000000;
#X text 352 223 overflow all instances, f 13;
#X obj 91 181 clone grain-cloud~ 12 \$1;
#X obj 92 250 outlet~;
#X obj 148 250 outlet~;
#X obj 92 77 r \$1-play-cloud;
#X obj 209 52 inlet;
#X obj 209 76 select bang;
#X connect 0 0 10 0;
#X connect 3 0 0 0;
#X connect 4 0 0 1;
#X connect 7 0 10 0;
#X connect 7 1 8 0;
#X connect 10 0 11 0;
#X connect 10 1 12 0;
#X connect 10 2 7 0;
#X connect 13 0 10 0;
#X connect 14 0 15 0;
#X connect 15 0 4 0;
#X connect 15 1 3 0;
