#N canvas 163 427 581 452 12;
#X floatatom 325 283 5 0 0 0 - - - 0;
#X floatatom 425 283 5 0 0 0 - - - 0;
#X obj 176 134 bng 19 250 50 0 empty empty empty 0 -10 0 12 #fcfcfc #000000 #000000;
#N canvas 461 25 592 393 stretchfreeze 1;
#X floatatom 265 213 5 0 0 0 - - - 0;
#X floatatom 141 167 4 0 0 0 - - - 0;
#N canvas 583 662 1052 750 timestretch 1;
#X obj 110 28 inlet;
#X obj 110 55 bng 19 250 50 0 empty empty empty 0 -10 0 12 #fcfcfc #000000 #000000;
#X floatatom 110 518 5 0 0 0 - - - 0;
#X obj 110 491 +;
#X obj 133 619 select 0 1;
#X obj 126 657 i;
#X floatatom 199 55 5 0 0 0 - - - 0;
#X obj 133 595 >= 2500;
#X obj 166 424 i;
#X obj 166 448 * -1;
#X obj 110 85 t b b b;
#X obj 110 696 outlet;
#X floatatom 740 371 5 0 0 0 - - - 0;
#X text 194 583 foldover at half buffer, f 15;
#X text 201 430 reset to zero, f 7;
#X obj 110 541 t f f f;
#X obj 110 366 bng 19 250 50 0 empty empty empty 0 -10 0 12 #fcfcfc #000000 #000000;
#X floatatom 110 415 5 0 0 0 - - - 0;
#X obj 166 472 clip 0;
#X obj 271 344 *;
#X obj 271 28 inlet;
#X floatatom 271 55 5 0 0 0 - - - 0;
#X obj 271 320 t b f;
#X text 315 27 timestretch amount;
#X floatatom 303 344 5 0 0 0 - - - 0;
#X obj 271 296 clip 0 10;
#N canvas 640 435 499 370 posvar 0;
#X floatatom 244 93 5 0 0 0 - - - 0;
#X floatatom 304 93 5 0 100 0 - - - 0;
#X obj 102 134 random 1000;
#X obj 102 159 / 1000;
#X obj 102 93 bng 19 250 50 0 empty empty empty 0 -10 0 12 #fcfcfc #000000 #000000;
#X obj 286 196 *;
#X obj 243 254 +;
#X floatatom 243 278 5 0 0 0 - - - 0;
#X obj 286 220 t b f;
#X obj 244 49 inlet;
#X obj 305 49 inlet;
#X obj 102 49 inlet;
#X text 103 23 generate output;
#X obj 243 301 outlet;
#X text 246 23 value;
#X text 302 23 random var (absolute);
#X connect 0 0 6 0;
#X connect 1 0 5 1;
#X connect 2 0 3 0;
#X connect 3 0 5 0;
#X connect 4 0 2 0;
#X connect 5 0 8 0;
#X connect 6 0 7 0;
#X connect 7 0 13 0;
#X connect 8 0 6 0;
#X connect 8 1 6 1;
#X connect 9 0 0 0;
#X connect 10 0 1 0;
#X connect 11 0 4 0;
#X restore 110 391 pd posvar;
#X floatatom 271 368 5 0 0 0 - - - 0;
#X obj 739 28 inlet;
#X text 785 27 posvar (ms);
#X obj 461 107 bng 19 250 50 0 empty empty empty 0 -10 0 12 #fcfcfc #000000 #000000;
#X obj 461 131 random 200;
#X obj 461 154 - 100;
#X obj 461 177 moses 0;
#X floatatom 353 223 5 0 0 0 - - - 0;
#X floatatom 528 55 5 0 0 0 - - - 0;
#X obj 507 201 m_scale 0 100 1 4;
#X obj 353 201 m_scale -100 0 0.25 1;
#X text 551 152 positive 1-100 becomes stretch var 1 to 4 max or 0.25 to 1 min, f 24;
#X obj 271 273 * 1;
#X obj 528 28 inlet;
#X obj 528 77 * 2;
#X text 571 27 stretch var (0-100);
#X obj 353 246 t b f;
#X obj 194 28 r \$1-metro;
#X connect 0 0 1 0;
#X connect 1 0 10 0;
#X connect 2 0 15 0;
#X connect 3 0 2 0;
#X connect 4 0 5 0;
#X connect 4 1 8 0;
#X connect 5 0 3 1;
#X connect 6 0 8 1;
#X connect 6 0 18 2;
#X connect 6 0 19 0;
#X connect 7 0 4 0;
#X connect 8 0 9 0;
#X connect 9 0 18 0;
#X connect 10 0 16 0;
#X connect 10 1 30 0;
#X connect 12 0 26 2;
#X connect 15 0 11 0;
#X connect 15 1 7 0;
#X connect 15 2 5 1;
#X connect 16 0 26 0;
#X connect 17 0 3 0;
#X connect 18 0 3 1;
#X connect 19 0 27 0;
#X connect 20 0 21 0;
#X connect 21 0 39 0;
#X connect 22 0 19 0;
#X connect 22 1 19 1;
#X connect 22 1 24 0;
#X connect 25 0 22 0;
#X connect 26 0 17 0;
#X connect 27 0 26 1;
#X connect 28 0 12 0;
#X connect 30 0 31 0;
#X connect 31 0 32 0;
#X connect 32 0 33 0;
#X connect 33 0 37 0;
#X connect 33 1 36 0;
#X connect 34 0 43 0;
#X connect 35 0 41 0;
#X connect 35 0 32 1;
#X connect 36 0 34 0;
#X connect 37 0 34 0;
#X connect 39 0 25 0;
#X connect 40 0 35 0;
#X connect 41 0 31 1;
#X connect 43 0 39 0;
#X connect 43 1 39 1;
#X connect 44 0 6 0;
#X restore 110 190 pd timestretch;
#N canvas 8 64 327 284 switch 0;
#X obj 135 27 inlet;
#X obj 135 78 < 1;
#X obj 116 135 *;
#X obj 156 135 *;
#X obj 156 161 t b f;
#X obj 189 27 inlet;
#X obj 241 27 inlet;
#X obj 116 206 +;
#X obj 116 249 outlet;
#X connect 0 0 1 0;
#X connect 0 0 3 1;
#X connect 1 0 2 1;
#X connect 2 0 7 0;
#X connect 3 0 4 0;
#X connect 4 0 7 0;
#X connect 4 1 7 1;
#X connect 5 0 2 0;
#X connect 6 0 3 0;
#X connect 7 0 8 0;
#X restore 80 282 pd switch;
#X floatatom 80 306 5 0 0 0 - - - 0;
#X floatatom 110 213 5 0 0 0 - - - 0;
#X text 142 32 time stretch;
#N canvas 237 274 499 370 frzpos 0;
#X floatatom 244 93 5 0 0 0 - - - 0;
#X floatatom 304 93 5 0 100 0 - - - 0;
#X obj 102 134 random 1000;
#X obj 102 159 / 1000;
#X obj 102 93 bng 19 250 50 0 empty empty empty 0 -10 0 12 #fcfcfc #000000 #000000;
#X obj 286 196 *;
#X obj 243 254 +;
#X floatatom 243 278 5 0 0 0 - - - 0;
#X obj 286 220 t b f;
#X obj 244 49 inlet;
#X obj 305 49 inlet;
#X obj 102 49 inlet;
#X text 103 23 generate output;
#X obj 243 301 outlet;
#X text 246 23 value;
#X text 302 23 random var (absolute);
#X connect 0 0 6 0;
#X connect 1 0 5 1;
#X connect 2 0 3 0;
#X connect 3 0 5 0;
#X connect 4 0 2 0;
#X connect 5 0 8 0;
#X connect 6 0 7 0;
#X connect 7 0 13 0;
#X connect 8 0 6 0;
#X connect 8 1 6 1;
#X connect 9 0 0 0;
#X connect 10 0 1 0;
#X connect 11 0 4 0;
#X restore 265 190 pd frzpos;
#X obj 28 54 inlet;
#X obj 27 171 bng 19 250 50 0 empty empty empty 0 -10 0 12 #fcfcfc #000000 #000000;
#X floatatom 295 162 5 0 0 0 - - - 0;
#X floatatom 435 172 5 0 0 0 - - - 0;
#X text 435 34 position var (ms);
#X text 296 32 position (ms);
#X obj 80 329 outlet;
#X text 155 283 switch between 'freeze' mode (position+var) and 'play' mode (timestretch+var), f 31;
#X floatatom 173 167 4 0 0 0 - - - 0;
#X text 184 57 stretch var;
#X obj 82 55 r \$1-freeze;
#X obj 141 82 r \$1-stretch;
#X obj 174 110 r \$1-stretchvar;
#X obj 296 54 r \$1-pos;
#X obj 435 54 r \$1-posvar;
#X connect 0 0 3 2;
#X connect 1 0 2 1;
#X connect 2 0 5 0;
#X connect 3 0 4 0;
#X connect 4 0 14 0;
#X connect 5 0 3 1;
#X connect 7 0 0 0;
#X connect 8 0 9 0;
#X connect 9 0 2 0;
#X connect 9 0 7 0;
#X connect 10 0 7 1;
#X connect 11 0 7 2;
#X connect 11 0 2 3;
#X connect 16 0 2 2;
#X connect 18 0 3 0;
#X connect 19 0 1 0;
#X connect 20 0 16 0;
#X connect 21 0 10 0;
#X connect 22 0 11 0;
#X restore 198 153 pd stretchfreeze;
#X floatatom 197 283 5 0 0 0 - - - 0;
#N canvas 52 341 272 174 grain-dur 0;
#X floatatom 72 97 5 0 0 0 - - - 0;
#X obj 72 57 variator;
#X obj 41 17 inlet;
#X obj 72 120 outlet;
#X obj 89 17 r \$1-dur;
#X obj 155 18 r \$1-durvar;
#X connect 0 0 3 0;
#X connect 1 0 0 0;
#X connect 2 0 1 0;
#X connect 4 0 1 1;
#X connect 5 0 1 2;
#X restore 326 153 pd grain-dur;
#N canvas 42 142 749 602 transposer 0;
#X obj 59 81 variator;
#X obj 59 36 inlet;
#X obj 56 565 outlet;
#X floatatom 79 357 5 0 0 0 - - - 0;
#X obj 79 380 / 100;
#X obj 79 407 i;
#X floatatom 79 431 5 0 0 0 - - - 0;
#X obj 79 454 * 100;
#X floatatom 56 494 5 0 0 0 - - - 0;
#X floatatom 299 81 5 0 0 0 - - - 0;
#X obj 299 122 route 0;
#X obj 118 160 loadbang;
#X msg 216 205 2;
#X msg 216 184 bang;
#X msg 183 205 1;
#X obj 184 160 sel 0;
#N canvas 192 270 548 310 switch 0;
#X obj 41 187 spigot;
#X obj 132 188 spigot;
#X obj 240 187 spigot;
#X obj 361 187 spigot;
#X obj 44 19 inlet;
#X obj 78 106 i 1;
#X obj 400 105 i 1;
#X obj 278 106 i 1;
#X obj 169 105 i 1;
#X obj 247 6 inlet;
#X obj 89 136 i 0;
#X obj 180 135 i 0;
#X obj 289 136 i 0;
#X obj 411 135 i 0;
#X obj 45 236 outlet;
#X obj 133 232 outlet;
#X obj 240 233 outlet;
#X obj 361 236 outlet;
#X obj 247 56 select 1 2 3 4;
#X connect 0 0 14 0;
#X connect 1 0 15 0;
#X connect 2 0 16 0;
#X connect 3 0 17 0;
#X connect 4 0 0 0;
#X connect 4 0 1 0;
#X connect 4 0 2 0;
#X connect 4 0 3 0;
#X connect 5 0 0 1;
#X connect 6 0 3 1;
#X connect 7 0 2 1;
#X connect 8 0 1 1;
#X connect 9 0 18 0;
#X connect 10 0 0 1;
#X connect 11 0 1 1;
#X connect 12 0 2 1;
#X connect 13 0 3 1;
#X connect 18 0 5 0;
#X connect 18 0 11 0;
#X connect 18 0 12 0;
#X connect 18 0 13 0;
#X connect 18 1 8 0;
#X connect 18 1 10 0;
#X connect 18 1 12 0;
#X connect 18 1 13 0;
#X connect 18 2 7 0;
#X connect 18 2 10 0;
#X connect 18 2 11 0;
#X connect 18 2 13 0;
#X connect 18 3 6 0;
#X connect 18 3 10 0;
#X connect 18 3 11 0;
#X connect 18 3 12 0;
#X restore 59 224 pd switch;
#X floatatom 59 122 5 0 0 0 - - - 0;
#X text 102 121 transposition;
#X obj 345 185 / 10;
#X obj 345 209 i;
#X floatatom 345 233 5 0 0 0 - - - 0;
#X text 340 80 quantize amount cents;
#X obj 345 160 * 10;
#X text 386 184 quantize to 10 cent increments;
#X text 389 232 quantize grid (200 = whole step \, 700 = P5);
#X obj 110 35 r \$1-transp;
#X obj 195 35 r \$1-transpvar;
#X obj 300 35 r \$1-pitchquant;
#X connect 0 0 17 0;
#X connect 1 0 0 0;
#X connect 3 0 4 0;
#X connect 4 0 5 0;
#X connect 5 0 6 0;
#X connect 6 0 7 0;
#X connect 7 0 8 0;
#X connect 8 0 2 0;
#X connect 9 0 10 0;
#X connect 9 0 15 0;
#X connect 10 1 23 0;
#X connect 11 0 14 0;
#X connect 12 0 16 1;
#X connect 13 0 12 0;
#X connect 14 0 16 1;
#X connect 15 0 14 0;
#X connect 15 1 13 0;
#X connect 16 0 8 0;
#X connect 16 1 3 0;
#X connect 17 0 16 0;
#X connect 19 0 20 0;
#X connect 20 0 21 0;
#X connect 21 0 4 1;
#X connect 21 0 7 1;
#X connect 23 0 19 0;
#X connect 26 0 0 1;
#X connect 27 0 0 2;
#X connect 28 0 9 0;
#X restore 426 153 pd transposer;
#N canvas 777 240 497 468 cloud-generator 0;
#X obj 223 131 outlet;
#X text 47 74 Play (0);
#X text 46 85 Freeze (1);
#X obj 57 105 inlet;
#X obj 57 156 outlet;
#X obj 223 105 inlet;
#X floatatom 57 286 5 0 0 0 - - - 0;
#X obj 57 310 density-generator;
#X obj 222 286 tgl 19 0 empty empty empty 0 -10 0 12 #fcfcfc #000000 #000000 0 1;
#X obj 222 310 metro 500;
#X msg 102 286 0;
#X text 141 14 stochastic density/sec;
#X text 141 29 or machine gun metro;
#X text 142 45 or both;
#X obj 57 259 change;
#X obj 246 387 bng 19 250 50 0 empty empty empty 0 -10 0 12 #fcfcfc #000000 #000000;
#X obj 245 419 outlet;
#X obj 410 105 inlet;
#X obj 222 259 route 0;
#X obj 57 131 s-r \$1-density;
#X obj 223 156 s-r \$1-metro;
#X obj 222 235 r \$1-metro;
#X obj 57 235 r \$1-density;
#X connect 3 0 19 0;
#X connect 5 0 20 0;
#X connect 6 0 7 0;
#X connect 7 0 15 0;
#X connect 8 0 9 0;
#X connect 9 0 15 0;
#X connect 10 0 6 0;
#X connect 14 0 6 0;
#X connect 15 0 16 0;
#X connect 18 0 8 0;
#X connect 18 1 8 0;
#X connect 18 1 9 1;
#X connect 19 0 4 0;
#X connect 20 0 0 0;
#X connect 21 0 18 0;
#X connect 22 0 14 0;
#X restore 53 77 pd cloud-generator;
#X text 41 19 density (Hz), f 7;
#X text 111 19 metro (ms), f 5;
#X obj 53 53 inlet;
#X obj 115 53 inlet;
#X obj 53 106 outlet;
#X obj 116 106 outlet;
#X obj 202 49 inlet;
#X obj 264 49 inlet;
#X obj 244 312 outlet;
#X obj 338 315 outlet;
#X obj 341 47 inlet;
#X obj 437 315 outlet;
#X obj 197 346 pack 0 0 0 0, f 33;
#X obj 197 312 t b f;
#X obj 197 370 s \$1-play-cloud;
#X text 440 36 Play (0);
#X text 439 47 Freeze (1);
#X obj 198 177 moses 2500;
#X obj 265 207 - 2500;
#X obj 326 177 abs;
#X obj 326 201 moses 2500;
#X msg 393 228 2499;
#X text 22 205 place limits on position;
#X text 22 227 and dur to sum to;
#X text 22 249 less than buffer length;
#X connect 0 0 17 0;
#X connect 0 0 20 2;
#X connect 1 0 19 0;
#X connect 1 0 20 3;
#X connect 2 0 3 0;
#X connect 2 0 5 0;
#X connect 2 0 6 0;
#X connect 3 0 25 0;
#X connect 4 0 16 0;
#X connect 4 0 21 0;
#X connect 5 0 27 0;
#X connect 6 0 1 0;
#X connect 7 0 12 0;
#X connect 7 1 13 0;
#X connect 7 2 2 0;
#X connect 10 0 7 0;
#X connect 11 0 7 1;
#X connect 20 0 22 0;
#X connect 21 0 20 0;
#X connect 21 1 20 1;
#X connect 25 0 4 0;
#X connect 25 1 26 0;
#X connect 26 0 4 0;
#X connect 27 0 28 0;
#X connect 28 0 0 0;
#X connect 28 1 29 0;
#X connect 29 0 0 0;
