#N canvas 92 129 615 417 12;
#X obj 113 105 * 1000;
#X obj 113 129 i;
#X obj 113 153 / 1000;
#X msg 30 154 0;
#X obj 479 118 loadbang;
#X msg 479 142 1;
#X obj 95 275 f;
#X msg 95 299 \$1 10;
#X obj 95 323 line;
#X msg 194 151 1;
#X obj 32 44 moses 0.0005;
#X obj 113 68 moses 0.9995;
#X obj 32 19 inlet;
#X text 234 100 make resolution 1-1000, f 16;
#X text 234 143 set threshold to force 0 and 1, f 16;
#X obj 95 371 outlet;
#X obj 436 25 inlet;
#X obj 433 187 tgl 19 0 empty empty empty 0 -10 0 12 #fcfcfc #000000 #000000 0 1;
#X obj 95 347 change;
#X text 206 302 need to be able to turn off else values are always sent, f 29;
#X obj 433 216 metro \$1;
#X obj 433 240 bng 19 250 50 0 empty empty empty 0 -10 0 12 #fcfcfc #000000 #000000;
#X obj 385 24 inlet;
#X obj 523 25 inlet;
#X text 474 3 report knob values;
#X obj 523 49 bng 19 250 50 0 empty empty empty 0 -10 0 12 #fcfcfc #000000 #000000;
#X connect 0 0 1 0;
#X connect 1 0 2 0;
#X connect 2 0 6 1;
#X connect 3 0 6 1;
#X connect 4 0 5 0;
#X connect 5 0 17 0;
#X connect 6 0 7 0;
#X connect 7 0 8 0;
#X connect 8 0 18 0;
#X connect 9 0 6 1;
#X connect 10 0 3 0;
#X connect 10 1 11 0;
#X connect 11 0 0 0;
#X connect 11 1 9 0;
#X connect 12 0 10 0;
#X connect 16 0 17 0;
#X connect 17 0 20 0;
#X connect 18 0 15 0;
#X connect 20 0 6 0;
#X connect 20 0 21 0;
#X connect 22 0 20 1;
#X connect 23 0 25 0;
#X connect 25 0 18 0;
