#N canvas 511 310 874 543 12;
#X obj 30 254 vsl 19 162 0 1 0 0 empty empty empty 0 -9 0 12 #fcfcfc #000000 #000000 0 1;
#X obj 111 254 vsl 19 162 0 1 0 0 empty empty empty 0 -9 0 12 #fcfcfc #000000 #000000 0 1;
#X obj 111 221 eavi-rms;
#N canvas 333 268 250 226 range 0;
#X floatatom 37 78 5 0 0 0 - - - 0;
#X obj 37 101 - 8192;
#X obj 37 125 / 8192;
#X floatatom 37 149 5 0 0 0 - - - 0;
#X obj 37 45 inlet;
#X obj 37 180 outlet;
#X text 98 94 14 bit value converted to -1 to 1, f 14;
#X connect 0 0 1 0;
#X connect 1 0 2 0;
#X connect 2 0 3 0;
#X connect 3 0 5 0;
#X connect 4 0 0 0;
#X restore 30 179 pd range;
#N canvas 333 268 250 226 range 0;
#X floatatom 37 78 5 0 0 0 - - - 0;
#X obj 37 101 - 8192;
#X obj 37 125 / 8192;
#X floatatom 37 149 5 0 0 0 - - - 0;
#X obj 37 45 inlet;
#X obj 37 180 outlet;
#X text 98 94 14 bit value converted to -1 to 1, f 14;
#X connect 0 0 1 0;
#X connect 1 0 2 0;
#X connect 2 0 3 0;
#X connect 3 0 5 0;
#X connect 4 0 0 0;
#X restore 111 179 pd range;
#X floatatom 563 203 5 0 0 0 - - - 0;
#X text 562 224 smoothing (ms), f 15;
#X obj 675 160 loadbang;
#X obj 30 221 eavi-rms;
#X msg 563 179 200;
#X msg 496 179 10;
#X obj 30 424 outlet;
#X obj 111 424 outlet;
#X obj 30 102 bendin 2;
#X obj 111 102 bendin 3;
#X obj 495 62 inlet;
#X obj 563 62 inlet;
#X obj 563 110 + 1;
#X text 28 37 strangely \, EMG-1 comes out of Bendin 2...;
#X floatatom 496 203 5 0 0 0 - - - 0;
#X obj 496 111 + 1;
#X obj 496 87 * 20;
#X obj 190 254 vsl 19 162 0 1 0 0 empty empty empty 0 -9 0 12 #fcfcfc #000000 #000000 0 1;
#X obj 271 254 vsl 19 162 0 1 0 0 empty empty empty 0 -9 0 12 #fcfcfc #000000 #000000 0 1;
#X obj 271 221 eavi-rms;
#N canvas 333 268 250 226 range 0;
#X floatatom 37 78 5 0 0 0 - - - 0;
#X obj 37 101 - 8192;
#X obj 37 125 / 8192;
#X floatatom 37 149 5 0 0 0 - - - 0;
#X obj 37 45 inlet;
#X obj 37 180 outlet;
#X text 98 94 14 bit value converted to -1 to 1, f 14;
#X connect 0 0 1 0;
#X connect 1 0 2 0;
#X connect 2 0 3 0;
#X connect 3 0 5 0;
#X connect 4 0 0 0;
#X restore 190 179 pd range;
#N canvas 333 268 250 226 range 0;
#X floatatom 37 78 5 0 0 0 - - - 0;
#X obj 37 101 - 8192;
#X obj 37 125 / 8192;
#X floatatom 37 149 5 0 0 0 - - - 0;
#X obj 37 45 inlet;
#X obj 37 180 outlet;
#X text 98 94 14 bit value converted to -1 to 1, f 14;
#X connect 0 0 1 0;
#X connect 1 0 2 0;
#X connect 2 0 3 0;
#X connect 3 0 5 0;
#X connect 4 0 0 0;
#X restore 271 179 pd range;
#X obj 190 221 eavi-rms;
#X obj 190 424 outlet;
#X obj 271 424 outlet;
#X obj 190 102 bendin 4;
#X obj 271 103 bendin 5;
#X obj 37 142 s emg1-raw;
#X obj 116 142 s emg2-raw;
#X obj 197 142 s emg3-raw;
#X obj 276 142 s emg4-raw;
#X text 468 225 gain EMG 1 \, 2 \, 3 \, 4, f 10;
#X obj 563 86 * 400;
#X text 612 59 smoothing;
#X connect 0 0 11 0;
#X connect 1 0 12 0;
#X connect 2 0 1 0;
#X connect 3 0 8 0;
#X connect 4 0 2 0;
#X connect 5 0 8 1;
#X connect 5 0 2 1;
#X connect 5 0 27 1;
#X connect 5 0 24 1;
#X connect 7 0 9 0;
#X connect 7 0 10 0;
#X connect 8 0 0 0;
#X connect 9 0 5 0;
#X connect 10 0 19 0;
#X connect 13 0 3 0;
#X connect 13 0 32 0;
#X connect 14 0 4 0;
#X connect 14 0 33 0;
#X connect 15 0 21 0;
#X connect 16 0 37 0;
#X connect 17 0 5 0;
#X connect 19 0 8 3;
#X connect 19 0 27 3;
#X connect 19 0 2 3;
#X connect 19 0 24 3;
#X connect 20 0 19 0;
#X connect 21 0 20 0;
#X connect 22 0 28 0;
#X connect 23 0 29 0;
#X connect 24 0 23 0;
#X connect 25 0 27 0;
#X connect 26 0 24 0;
#X connect 27 0 22 0;
#X connect 30 0 25 0;
#X connect 30 0 34 0;
#X connect 31 0 26 0;
#X connect 31 0 35 0;
#X connect 37 0 17 0;
