#N canvas 49 33 540 517 10;
#X obj 32 79 inlet~;
#X obj 124 79 inlet;
#X obj 32 337 *~;
#X obj 124 271 line~;
#X obj 354 79 inlet;
#X obj 124 222 pack 0 30;
#X obj 32 367 outlet~;
#X obj 124 126 + 127;
#X obj 124 102 t f;
#X text -12 -5 gain2~;
#X obj 124 246 linedrivee 145 7.94328 1.12202 30;
#X text 15 400 xjimmies lib. z. settel/jm dumas 2003-2007;
#X obj 182 105 optargf 30 \$1;
#X text 113 44 gain (-127db : +18db);
#X text 332 46 fade time (ms);
#X text -12 13 opt. arg1 : fade time_ms (default is 30);
#X text 113 57 default (-127);
#X text 331 61 default (30);
#X connect 0 0 2 0;
#X connect 1 0 8 0;
#X connect 2 0 6 0;
#X connect 3 0 2 1;
#X connect 4 0 5 1;
#X connect 5 0 10 0;
#X connect 7 0 5 0;
#X connect 8 0 7 0;
#X connect 10 0 3 0;
#X connect 12 0 5 1;
