#N canvas 389 161 386 506 10;
#X obj 170 43 inlet;
#X obj 41 111 moses \$1;
#X obj 116 164 f \$1;
#X obj 116 137 bang;
#X obj 149 434 outlet;
#X obj 149 407 pack 0 \$4;
#X msg 41 315 0;
#X obj 106 228 - \$1;
#X obj 120 357 * \$2;
#X obj 120 311 pow;
#X obj 106 253 t b f;
#X obj 106 279 f \$3;
#X obj 41 200 moses 1;
#X obj 170 70 unpack;
#X text 221 43 linear zscale;
#X text 221 435 exp. zscale;
#X text 13 5 linedrivee:;
#X text 92 6 linear to nonlinear conversion;
#X text 14 470 based on Mildred Puckette's "linedrive" ISPW object
;
#X text 14 484 xjimmies lib. z. settel/jm dumas 2003-2007;
#X connect 0 0 13 0;
#X connect 1 0 12 0;
#X connect 1 1 3 0;
#X connect 2 0 12 0;
#X connect 3 0 2 0;
#X connect 5 0 4 0;
#X connect 6 0 5 0;
#X connect 7 0 10 0;
#X connect 8 0 5 0;
#X connect 9 0 8 0;
#X connect 10 0 11 0;
#X connect 10 1 9 1;
#X connect 11 0 9 0;
#X connect 12 0 6 0;
#X connect 12 1 7 0;
#X connect 13 0 1 0;
#X connect 13 1 5 1;
