#N canvas 121 158 584 309 12;
#X floatatom 48 77 5 0 0 0 - - - 0;
#X obj 48 124 m_scale 0 1 0 100, f 22;
#X floatatom 48 148 5 0 0 0 - - - 0;
#X floatatom 132 101 5 0 0 0 - - - 0;
#X floatatom 173 101 5 0 0 0 - - - 0;
#X floatatom 214 101 5 0 0 0 - - - 0;
#X obj 48 202 send, f 6;
#X obj 91 77 route send min max curve;
#X obj 48 29 r \$2;
#X obj 91 53 r \$1;
#X text 139 53 map number;
#X text 88 28 input;
#X obj 109 202 outlet;
#X msg 312 99 \; map07 send symbol doublebuf2-metro \; map07 min 1000 \; map07 max 1 \; map07 curve 0.5 \;;
#X text 312 50 example;
#X text 312 70 r nanokontrol01;
#X connect 0 0 1 0;
#X connect 1 0 2 0;
#X connect 2 0 6 0;
#X connect 3 0 1 3;
#X connect 4 0 1 4;
#X connect 5 0 1 5;
#X connect 7 0 6 1;
#X connect 7 0 12 0;
#X connect 7 1 3 0;
#X connect 7 2 4 0;
#X connect 7 3 5 0;
#X connect 8 0 0 0;
#X connect 9 0 7 0;
