#N canvas 664 214 610 329 12;
#X obj 29 64 bendin 1;
#X floatatom 29 88 5 0 0 0 - - - 0;
#X floatatom 95 87 5 0 0 0 - - - 0;
#X obj 95 63 bendin 2;
#X floatatom 169 84 5 0 0 0 - - - 0;
#X floatatom 235 83 5 0 0 0 - - - 0;
#X obj 169 60 bendin 3;
#X obj 235 59 bendin 4;
#X floatatom 305 82 5 0 0 0 - - - 0;
#X obj 305 58 bendin 5;
#X floatatom 33 190 5 0 0 0 - - - 0;
#X floatatom 99 189 5 0 0 0 - - - 0;
#X floatatom 173 186 5 0 0 0 - - - 0;
#X floatatom 239 185 5 0 0 0 - - - 0;
#X floatatom 309 184 5 0 0 0 - - - 0;
#X obj 33 166 bendin 17;
#X obj 99 165 bendin 18;
#X obj 173 162 bendin 19;
#X obj 239 161 bendin 20;
#X obj 309 160 bendin 21;
#X floatatom 385 183 5 0 0 0 - - - 0;
#X obj 385 159 bendin 22;
#X floatatom 32 260 5 0 0 0 - - - 0;
#X floatatom 98 259 5 0 0 0 - - - 0;
#X floatatom 172 256 5 0 0 0 - - - 0;
#X floatatom 238 255 5 0 0 0 - - - 0;
#X floatatom 308 254 5 0 0 0 - - - 0;
#X floatatom 384 253 5 0 0 0 - - - 0;
#X obj 32 236 bendin 33;
#X obj 98 235 bendin 34;
#X obj 172 232 bendin 35;
#X obj 238 231 bendin 36;
#X obj 308 230 bendin 37;
#X obj 384 229 bendin 38;
#X connect 0 0 1 0;
#X connect 3 0 2 0;
#X connect 6 0 4 0;
#X connect 7 0 5 0;
#X connect 9 0 8 0;
#X connect 15 0 10 0;
#X connect 16 0 11 0;
#X connect 17 0 12 0;
#X connect 18 0 13 0;
#X connect 19 0 14 0;
#X connect 21 0 20 0;
#X connect 28 0 22 0;
#X connect 29 0 23 0;
#X connect 30 0 24 0;
#X connect 31 0 25 0;
#X connect 32 0 26 0;
#X connect 33 0 27 0;
