#N canvas 222 61 1135 801 12;
#X floatatom 437 354 5 0 0 0 - - - 0;
#X obj 437 377 / 127;
#X floatatom 437 401 5 0 0 0 - - - 0;
#X obj 437 184 vsl 19 162 0 127 0 0 empty empty empty 0 -9 0 12 #fcfcfc #000000 #000000 0 1;
#X floatatom 509 355 5 0 0 0 - - - 0;
#X obj 509 378 / 127;
#X floatatom 509 402 5 0 0 0 - - - 0;
#X obj 509 185 vsl 19 162 0 127 0 0 empty empty empty 0 -9 0 12 #fcfcfc #000000 #000000 0 1;
#X floatatom 581 355 5 0 0 0 - - - 0;
#X obj 581 378 / 127;
#X floatatom 581 402 5 0 0 0 - - - 0;
#X obj 581 185 vsl 19 162 0 127 0 0 empty empty empty 0 -9 0 12 #fcfcfc #000000 #000000 0 1;
#X floatatom 653 356 5 0 0 0 - - - 0;
#X obj 653 379 / 127;
#X floatatom 653 403 5 0 0 0 - - - 0;
#X obj 653 186 vsl 19 162 0 127 0 0 empty empty empty 0 -9 0 12 #fcfcfc #000000 #000000 0 1;
#X obj 12 441 ctlin;
#X floatatom 12 465 5 0 0 0 - - - 0;
#X floatatom 51 465 5 0 0 0 - - - 0;
#X floatatom 725 356 5 0 0 0 - - - 0;
#X obj 725 379 / 127;
#X floatatom 725 403 5 0 0 0 - - - 0;
#X obj 725 186 vsl 19 162 0 127 0 0 empty empty empty 0 -9 0 12 #fcfcfc #000000 #000000 0 1;
#X floatatom 797 357 5 0 0 0 - - - 0;
#X obj 797 380 / 127;
#X floatatom 797 404 5 0 0 0 - - - 0;
#X obj 797 187 vsl 19 162 0 127 0 0 empty empty empty 0 -9 0 12 #fcfcfc #000000 #000000 0 1;
#X floatatom 869 357 5 0 0 0 - - - 0;
#X obj 869 380 / 127;
#X floatatom 869 404 5 0 0 0 - - - 0;
#X obj 869 187 vsl 19 162 0 127 0 0 empty empty empty 0 -9 0 12 #fcfcfc #000000 #000000 0 1;
#X floatatom 941 358 5 0 0 0 - - - 0;
#X obj 941 381 / 127;
#X floatatom 941 405 5 0 0 0 - - - 0;
#X obj 941 188 vsl 19 162 0 127 0 0 empty empty empty 0 -9 0 12 #fcfcfc #000000 #000000 0 1;
#X obj 440 67 hsl 62 14 0 127 0 0 empty empty empty -2 -10 0 12 #fcfcfc #000000 #000000 0 1;
#X obj 437 86 / 127;
#X obj 512 67 hsl 62 14 0 127 0 0 empty empty empty -2 -10 0 12 #fcfcfc #000000 #000000 0 1;
#X obj 509 86 / 127;
#X obj 584 68 hsl 62 14 0 127 0 0 empty empty empty -2 -10 0 12 #fcfcfc #000000 #000000 0 1;
#X obj 581 87 / 127;
#X obj 656 68 hsl 62 14 0 127 0 0 empty empty empty -2 -10 0 12 #fcfcfc #000000 #000000 0 1;
#X obj 653 87 / 127;
#X obj 728 69 hsl 62 14 0 127 0 0 empty empty empty -2 -10 0 12 #fcfcfc #000000 #000000 0 1;
#X obj 725 88 / 127;
#X obj 800 69 hsl 62 14 0 127 0 0 empty empty empty -2 -10 0 12 #fcfcfc #000000 #000000 0 1;
#X obj 797 88 / 127;
#X obj 872 70 hsl 62 14 0 127 0 0 empty empty empty -2 -10 0 12 #fcfcfc #000000 #000000 0 1;
#X obj 869 89 / 127;
#X obj 944 70 hsl 62 14 0 127 0 0 empty empty empty -2 -10 0 12 #fcfcfc #000000 #000000 0 1;
#X obj 941 89 / 127;
#X obj 79 575 > 1;
#X obj 79 623 tgl 19 0 empty empty empty 0 -10 0 12 #fcfcfc #000000 #000000 0 1;
#X obj 100 599 > 1;
#X obj 100 623 tgl 19 0 empty empty empty 0 -10 0 12 #fcfcfc #000000 #000000 0 1;
#X obj 17 301 > 1;
#X obj 17 325 tgl 19 0 empty empty empty 0 -10 0 12 #fcfcfc #000000 #000000 0 1;
#X obj 73 301 > 1;
#X obj 73 325 tgl 19 0 empty empty empty 0 -10 0 12 #fcfcfc #000000 #000000 0 1;
#X obj 130 301 > 1;
#X obj 130 325 tgl 19 0 empty empty empty 0 -10 0 12 #fcfcfc #000000 #000000 0 1;
#X floatatom 91 465 5 0 0 0 - - - 0;
#X obj 437 110 s nano2-knob01;
#X obj 509 134 s nano2-knob02;
#X obj 581 111 s nano2-knob03;
#X obj 653 135 s nano2-knob04;
#X obj 725 112 s nano2-knob05;
#X obj 797 136 s nano2-knob06;
#X obj 869 113 s nano2-knob07;
#X obj 941 137 s nano2-knob08;
#X obj 437 20 ctlin 16 18;
#X obj 509 43 ctlin 17 18;
#X obj 581 21 ctlin 18 18;
#X obj 653 44 ctlin 19 18;
#X obj 725 22 ctlin 20 18;
#X obj 797 45 ctlin 21 18;
#X obj 869 23 ctlin 22 18;
#X obj 941 46 ctlin 23 18;
#X obj 437 424 s nano2-fader01;
#X obj 509 450 s nano2-fader02;
#X obj 581 425 s nano2-fader03;
#X obj 653 451 s nano2-fader04;
#X obj 725 426 s nano2-fader05;
#X obj 797 452 s nano2-fader06;
#X obj 869 427 s nano2-fader07;
#X obj 941 453 s nano2-fader08;
#X obj 437 158 ctlin 0 18;
#X obj 509 159 ctlin 1 18;
#X obj 581 159 ctlin 2 18;
#X obj 653 160 ctlin 3 18;
#X obj 725 160 ctlin 4 18;
#X obj 797 161 ctlin 5 18;
#X obj 869 161 ctlin 6 18;
#X obj 941 162 ctlin 7 18;
#X obj 121 599 > 1;
#X obj 121 623 tgl 19 0 empty empty empty 0 -10 0 12 #fcfcfc #000000 #000000 0 1;
#X obj 79 647 s nano2-buttonA01;
#X obj 100 671 s nano2-buttonB01;
#X obj 121 695 s nano2-buttonC01;
#X obj 79 526 ctlin 32 18;
#X obj 100 550 ctlin 48 18;
#X obj 121 574 ctlin 64 18;
#X obj 205 575 > 1;
#X obj 205 623 tgl 19 0 empty empty empty 0 -10 0 12 #fcfcfc #000000 #000000 0 1;
#X obj 226 599 > 1;
#X obj 226 623 tgl 19 0 empty empty empty 0 -10 0 12 #fcfcfc #000000 #000000 0 1;
#X obj 247 599 > 1;
#X obj 247 623 tgl 19 0 empty empty empty 0 -10 0 12 #fcfcfc #000000 #000000 0 1;
#X obj 205 526 ctlin 33 18;
#X obj 226 550 ctlin 49 18;
#X obj 247 574 ctlin 65 18;
#X obj 205 647 s nano2-buttonA02;
#X obj 226 671 s nano2-buttonB02;
#X obj 247 695 s nano2-buttonC02;
#X obj 331 575 > 1;
#X obj 331 623 tgl 19 0 empty empty empty 0 -10 0 12 #fcfcfc #000000 #000000 0 1;
#X obj 352 599 > 1;
#X obj 352 623 tgl 19 0 empty empty empty 0 -10 0 12 #fcfcfc #000000 #000000 0 1;
#X obj 373 599 > 1;
#X obj 373 623 tgl 19 0 empty empty empty 0 -10 0 12 #fcfcfc #000000 #000000 0 1;
#X obj 457 575 > 1;
#X obj 457 623 tgl 19 0 empty empty empty 0 -10 0 12 #fcfcfc #000000 #000000 0 1;
#X obj 478 599 > 1;
#X obj 478 623 tgl 19 0 empty empty empty 0 -10 0 12 #fcfcfc #000000 #000000 0 1;
#X obj 499 599 > 1;
#X obj 499 623 tgl 19 0 empty empty empty 0 -10 0 12 #fcfcfc #000000 #000000 0 1;
#X obj 331 526 ctlin 34 18;
#X obj 457 526 ctlin 35 18;
#X obj 352 550 ctlin 50 18;
#X obj 478 550 ctlin 51 18;
#X obj 373 574 ctlin 66 18;
#X obj 499 574 ctlin 67 18;
#X obj 331 647 s nano2-buttonA03;
#X obj 352 671 s nano2-buttonB03;
#X obj 373 695 s nano2-buttonC03;
#X obj 457 647 s nano2-buttonA04;
#X obj 478 671 s nano2-buttonB04;
#X obj 499 695 s nano2-buttonC04;
#X obj 583 575 > 1;
#X obj 583 623 tgl 19 0 empty empty empty 0 -10 0 12 #fcfcfc #000000 #000000 0 1;
#X obj 604 599 > 1;
#X obj 604 623 tgl 19 0 empty empty empty 0 -10 0 12 #fcfcfc #000000 #000000 0 1;
#X obj 625 599 > 1;
#X obj 625 623 tgl 19 0 empty empty empty 0 -10 0 12 #fcfcfc #000000 #000000 0 1;
#X obj 709 575 > 1;
#X obj 709 623 tgl 19 0 empty empty empty 0 -10 0 12 #fcfcfc #000000 #000000 0 1;
#X obj 730 599 > 1;
#X obj 730 623 tgl 19 0 empty empty empty 0 -10 0 12 #fcfcfc #000000 #000000 0 1;
#X obj 751 599 > 1;
#X obj 751 623 tgl 19 0 empty empty empty 0 -10 0 12 #fcfcfc #000000 #000000 0 1;
#X obj 835 575 > 1;
#X obj 835 623 tgl 19 0 empty empty empty 0 -10 0 12 #fcfcfc #000000 #000000 0 1;
#X obj 856 599 > 1;
#X obj 856 623 tgl 19 0 empty empty empty 0 -10 0 12 #fcfcfc #000000 #000000 0 1;
#X obj 877 599 > 1;
#X obj 877 623 tgl 19 0 empty empty empty 0 -10 0 12 #fcfcfc #000000 #000000 0 1;
#X obj 961 575 > 1;
#X obj 961 623 tgl 19 0 empty empty empty 0 -10 0 12 #fcfcfc #000000 #000000 0 1;
#X obj 982 599 > 1;
#X obj 982 623 tgl 19 0 empty empty empty 0 -10 0 12 #fcfcfc #000000 #000000 0 1;
#X obj 1003 599 > 1;
#X obj 1003 623 tgl 19 0 empty empty empty 0 -10 0 12 #fcfcfc #000000 #000000 0 1;
#X obj 583 526 ctlin 36 18;
#X obj 709 526 ctlin 37 18;
#X obj 835 526 ctlin 38 18;
#X obj 961 526 ctlin 39 18;
#X obj 604 550 ctlin 52 18;
#X obj 730 550 ctlin 53 18;
#X obj 856 550 ctlin 54 18;
#X obj 982 550 ctlin 55 18;
#X obj 625 574 ctlin 68 18;
#X obj 751 574 ctlin 69 18;
#X obj 877 574 ctlin 70 18;
#X obj 1003 574 ctlin 71 18;
#X obj 583 647 s nano2-buttonA05;
#X obj 604 671 s nano2-buttonB05;
#X obj 625 695 s nano2-buttonC05;
#X obj 709 647 s nano2-buttonA06;
#X obj 730 671 s nano2-buttonB06;
#X obj 751 695 s nano2-buttonC06;
#X obj 835 647 s nano2-buttonA07;
#X obj 856 671 s nano2-buttonB07;
#X obj 877 695 s nano2-buttonC07;
#X obj 961 647 s nano2-buttonA08;
#X obj 982 671 s nano2-buttonB08;
#X obj 1003 695 s nano2-buttonC08;
#X obj 73 396 s nano2-stop;
#X obj 131 373 s nano3-rec;
#X obj 17 350 s nano2-rew;
#X obj 17 229 ctlin 43 18;
#X obj 45 301 > 1;
#X obj 45 325 tgl 19 0 empty empty empty 0 -10 0 12 #fcfcfc #000000 #000000 0 1;
#X obj 45 373 s nano2-ff;
#X obj 45 253 ctlin 44 18;
#X obj 102 301 > 1;
#X obj 102 325 tgl 19 0 empty empty empty 0 -10 0 12 #fcfcfc #000000 #000000 0 1;
#X obj 102 350 s nano2-play;
#X obj 102 229 ctlin 41 18;
#X obj 130 253 ctlin 45 18;
#X obj 73 274 ctlin 42 18;
#X connect 0 0 1 0;
#X connect 1 0 2 0;
#X connect 2 0 78 0;
#X connect 3 0 0 0;
#X connect 4 0 5 0;
#X connect 5 0 6 0;
#X connect 6 0 79 0;
#X connect 7 0 4 0;
#X connect 8 0 9 0;
#X connect 9 0 10 0;
#X connect 10 0 80 0;
#X connect 11 0 8 0;
#X connect 12 0 13 0;
#X connect 13 0 14 0;
#X connect 14 0 81 0;
#X connect 15 0 12 0;
#X connect 16 0 17 0;
#X connect 16 1 18 0;
#X connect 16 2 61 0;
#X connect 19 0 20 0;
#X connect 20 0 21 0;
#X connect 21 0 82 0;
#X connect 22 0 19 0;
#X connect 23 0 24 0;
#X connect 24 0 25 0;
#X connect 25 0 83 0;
#X connect 26 0 23 0;
#X connect 27 0 28 0;
#X connect 28 0 29 0;
#X connect 29 0 84 0;
#X connect 30 0 27 0;
#X connect 31 0 32 0;
#X connect 32 0 33 0;
#X connect 33 0 85 0;
#X connect 34 0 31 0;
#X connect 35 0 36 0;
#X connect 36 0 62 0;
#X connect 37 0 38 0;
#X connect 38 0 63 0;
#X connect 39 0 40 0;
#X connect 40 0 64 0;
#X connect 41 0 42 0;
#X connect 42 0 65 0;
#X connect 43 0 44 0;
#X connect 44 0 66 0;
#X connect 45 0 46 0;
#X connect 46 0 67 0;
#X connect 47 0 48 0;
#X connect 48 0 68 0;
#X connect 49 0 50 0;
#X connect 50 0 69 0;
#X connect 51 0 52 0;
#X connect 52 0 96 0;
#X connect 53 0 54 0;
#X connect 54 0 97 0;
#X connect 55 0 56 0;
#X connect 56 0 188 0;
#X connect 57 0 58 0;
#X connect 58 0 186 0;
#X connect 59 0 60 0;
#X connect 60 0 187 0;
#X connect 70 0 35 0;
#X connect 71 0 37 0;
#X connect 72 0 39 0;
#X connect 73 0 41 0;
#X connect 74 0 43 0;
#X connect 75 0 45 0;
#X connect 76 0 47 0;
#X connect 77 0 49 0;
#X connect 86 0 3 0;
#X connect 87 0 7 0;
#X connect 88 0 11 0;
#X connect 89 0 15 0;
#X connect 90 0 22 0;
#X connect 91 0 26 0;
#X connect 92 0 30 0;
#X connect 93 0 34 0;
#X connect 94 0 95 0;
#X connect 95 0 98 0;
#X connect 99 0 51 0;
#X connect 100 0 53 0;
#X connect 101 0 94 0;
#X connect 102 0 103 0;
#X connect 103 0 111 0;
#X connect 104 0 105 0;
#X connect 105 0 112 0;
#X connect 106 0 107 0;
#X connect 107 0 113 0;
#X connect 108 0 102 0;
#X connect 109 0 104 0;
#X connect 110 0 106 0;
#X connect 114 0 115 0;
#X connect 115 0 132 0;
#X connect 116 0 117 0;
#X connect 117 0 133 0;
#X connect 118 0 119 0;
#X connect 119 0 134 0;
#X connect 120 0 121 0;
#X connect 121 0 135 0;
#X connect 122 0 123 0;
#X connect 123 0 136 0;
#X connect 124 0 125 0;
#X connect 125 0 137 0;
#X connect 126 0 114 0;
#X connect 127 0 120 0;
#X connect 128 0 116 0;
#X connect 129 0 122 0;
#X connect 130 0 118 0;
#X connect 131 0 124 0;
#X connect 138 0 139 0;
#X connect 139 0 174 0;
#X connect 140 0 141 0;
#X connect 141 0 175 0;
#X connect 142 0 143 0;
#X connect 143 0 176 0;
#X connect 144 0 145 0;
#X connect 145 0 177 0;
#X connect 146 0 147 0;
#X connect 147 0 178 0;
#X connect 148 0 149 0;
#X connect 149 0 179 0;
#X connect 150 0 151 0;
#X connect 151 0 180 0;
#X connect 152 0 153 0;
#X connect 153 0 181 0;
#X connect 154 0 155 0;
#X connect 155 0 182 0;
#X connect 156 0 157 0;
#X connect 157 0 183 0;
#X connect 158 0 159 0;
#X connect 159 0 184 0;
#X connect 160 0 161 0;
#X connect 161 0 185 0;
#X connect 162 0 138 0;
#X connect 163 0 144 0;
#X connect 164 0 150 0;
#X connect 165 0 156 0;
#X connect 166 0 140 0;
#X connect 167 0 146 0;
#X connect 168 0 152 0;
#X connect 169 0 158 0;
#X connect 170 0 142 0;
#X connect 171 0 148 0;
#X connect 172 0 154 0;
#X connect 173 0 160 0;
#X connect 189 0 55 0;
#X connect 190 0 191 0;
#X connect 191 0 192 0;
#X connect 193 0 190 0;
#X connect 194 0 195 0;
#X connect 195 0 196 0;
#X connect 197 0 194 0;
#X connect 198 0 59 0;
#X connect 199 0 57 0;
