#N canvas -36 342 1058 709 12;
#X floatatom 247 352 5 0 0 0 - - - 0;
#X obj 247 375 / 127;
#X floatatom 247 399 5 0 0 0 - - - 0;
#X obj 247 156 ctlin 2 1;
#X obj 247 182 vsl 19 162 0 127 0 0 empty empty empty 0 -9 0 12 #fcfcfc #000000 #000000 0 1;
#X obj 247 422 s nano-fader01;
#X floatatom 319 353 5 0 0 0 - - - 0;
#X obj 319 376 / 127;
#X floatatom 319 400 5 0 0 0 - - - 0;
#X obj 319 183 vsl 19 162 0 127 0 0 empty empty empty 0 -9 0 12 #fcfcfc #000000 #000000 0 1;
#X obj 319 448 s nano-fader02;
#X obj 319 157 ctlin 3 1;
#X floatatom 391 353 5 0 0 0 - - - 0;
#X obj 391 376 / 127;
#X floatatom 391 400 5 0 0 0 - - - 0;
#X obj 391 183 vsl 19 162 0 127 0 0 empty empty empty 0 -9 0 12 #fcfcfc #000000 #000000 0 1;
#X floatatom 463 354 5 0 0 0 - - - 0;
#X obj 463 377 / 127;
#X floatatom 463 401 5 0 0 0 - - - 0;
#X obj 463 184 vsl 19 162 0 127 0 0 empty empty empty 0 -9 0 12 #fcfcfc #000000 #000000 0 1;
#X obj 106 528 ctlin;
#X floatatom 106 552 5 0 0 0 - - - 0;
#X floatatom 145 552 5 0 0 0 - - - 0;
#X obj 391 157 ctlin 4 1;
#X obj 463 158 ctlin 5 1;
#X obj 391 423 s nano-fader03;
#X obj 463 449 s nano-fader04;
#X floatatom 535 354 5 0 0 0 - - - 0;
#X obj 535 377 / 127;
#X floatatom 535 401 5 0 0 0 - - - 0;
#X obj 535 184 vsl 19 162 0 127 0 0 empty empty empty 0 -9 0 12 #fcfcfc #000000 #000000 0 1;
#X floatatom 607 355 5 0 0 0 - - - 0;
#X obj 607 378 / 127;
#X floatatom 607 402 5 0 0 0 - - - 0;
#X obj 607 185 vsl 19 162 0 127 0 0 empty empty empty 0 -9 0 12 #fcfcfc #000000 #000000 0 1;
#X floatatom 679 355 5 0 0 0 - - - 0;
#X obj 679 378 / 127;
#X floatatom 679 402 5 0 0 0 - - - 0;
#X obj 679 185 vsl 19 162 0 127 0 0 empty empty empty 0 -9 0 12 #fcfcfc #000000 #000000 0 1;
#X floatatom 751 356 5 0 0 0 - - - 0;
#X obj 751 379 / 127;
#X floatatom 751 403 5 0 0 0 - - - 0;
#X obj 751 186 vsl 19 162 0 127 0 0 empty empty empty 0 -9 0 12 #fcfcfc #000000 #000000 0 1;
#X obj 535 158 ctlin 6 1;
#X obj 607 159 ctlin 8 1;
#X obj 679 159 ctlin 9 1;
#X obj 535 424 s nano-fader05;
#X obj 607 450 s nano-fader06;
#X obj 679 425 s nano-fader07;
#X obj 751 451 s nano-fader08;
#X floatatom 828 356 5 0 0 0 - - - 0;
#X obj 828 379 / 127;
#X floatatom 828 403 5 0 0 0 - - - 0;
#X obj 828 186 vsl 19 162 0 127 0 0 empty empty empty 0 -9 0 12 #fcfcfc #000000 #000000 0 1;
#X obj 828 426 s nano-fader09;
#X obj 751 160 ctlin 12 1;
#X obj 828 160 ctlin 13 1;
#X obj 250 65 hsl 62 14 0 127 0 0 empty empty empty -2 -10 0 12 #fcfcfc #000000 #000000 0 1;
#X obj 247 18 ctlin 14 1;
#X obj 247 84 / 127;
#X obj 247 108 s nano-knob01;
#X obj 322 65 hsl 62 14 0 127 0 0 empty empty empty -2 -10 0 12 #fcfcfc #000000 #000000 0 1;
#X obj 319 84 / 127;
#X obj 319 41 ctlin 15 1;
#X obj 319 132 s nano-knob02;
#X obj 394 66 hsl 62 14 0 127 0 0 empty empty empty -2 -10 0 12 #fcfcfc #000000 #000000 0 1;
#X obj 391 85 / 127;
#X obj 466 66 hsl 62 14 0 127 0 0 empty empty empty -2 -10 0 12 #fcfcfc #000000 #000000 0 1;
#X obj 463 85 / 127;
#X obj 391 19 ctlin 16 1;
#X obj 463 42 ctlin 17 1;
#X obj 391 109 s nano-knob03;
#X obj 463 133 s nano-knob04;
#X obj 538 67 hsl 62 14 0 127 0 0 empty empty empty -2 -10 0 12 #fcfcfc #000000 #000000 0 1;
#X obj 535 86 / 127;
#X obj 610 67 hsl 62 14 0 127 0 0 empty empty empty -2 -10 0 12 #fcfcfc #000000 #000000 0 1;
#X obj 607 86 / 127;
#X obj 682 68 hsl 62 14 0 127 0 0 empty empty empty -2 -10 0 12 #fcfcfc #000000 #000000 0 1;
#X obj 679 87 / 127;
#X obj 754 68 hsl 62 14 0 127 0 0 empty empty empty -2 -10 0 12 #fcfcfc #000000 #000000 0 1;
#X obj 751 87 / 127;
#X obj 535 20 ctlin 18 1;
#X obj 607 43 ctlin 19 1;
#X obj 679 21 ctlin 20 1;
#X obj 751 44 ctlin 21 1;
#X obj 535 110 s nano-knob05;
#X obj 607 134 s nano-knob06;
#X obj 679 111 s nano-knob07;
#X obj 751 135 s nano-knob08;
#X obj 826 69 hsl 62 14 0 127 0 0 empty empty empty -2 -10 0 12 #fcfcfc #000000 #000000 0 1;
#X obj 823 88 / 127;
#X obj 823 22 ctlin 22 1;
#X obj 823 112 s nano-knob09;
#X obj 245 524 > 1;
#X obj 245 548 tgl 19 0 empty empty empty 0 -10 0 12 #fcfcfc #000000 #000000 0 1;
#X obj 245 475 ctlin 23 1;
#X obj 245 596 s nano-buttonA01;
#X obj 274 548 > 1;
#X obj 274 572 tgl 19 0 empty empty empty 0 -10 0 12 #fcfcfc #000000 #000000 0 1;
#X obj 274 499 ctlin 33 1;
#X obj 274 620 s nano-buttonB01;
#X obj 319 524 > 1;
#X obj 319 548 tgl 19 0 empty empty empty 0 -10 0 12 #fcfcfc #000000 #000000 0 1;
#X obj 348 548 > 1;
#X obj 348 572 tgl 19 0 empty empty empty 0 -10 0 12 #fcfcfc #000000 #000000 0 1;
#X obj 319 644 s nano-buttonA02;
#X obj 348 668 s nano-buttonB02;
#X obj 319 475 ctlin 24 1;
#X obj 348 499 ctlin 34 1;
#X obj 393 524 > 1;
#X obj 393 548 tgl 19 0 empty empty empty 0 -10 0 12 #fcfcfc #000000 #000000 0 1;
#X obj 422 548 > 1;
#X obj 422 572 tgl 19 0 empty empty empty 0 -10 0 12 #fcfcfc #000000 #000000 0 1;
#X obj 467 524 > 1;
#X obj 467 548 tgl 19 0 empty empty empty 0 -10 0 12 #fcfcfc #000000 #000000 0 1;
#X obj 496 548 > 1;
#X obj 496 572 tgl 19 0 empty empty empty 0 -10 0 12 #fcfcfc #000000 #000000 0 1;
#X obj 393 475 ctlin 25 1;
#X obj 467 475 ctlin 26 1;
#X obj 422 499 ctlin 25 1;
#X obj 496 499 ctlin 26 1;
#X obj 393 596 s nano-buttonA03;
#X obj 422 620 s nano-buttonB03;
#X obj 467 644 s nano-buttonA04;
#X obj 496 668 s nano-buttonB04;
#X obj 541 524 > 1;
#X obj 541 548 tgl 19 0 empty empty empty 0 -10 0 12 #fcfcfc #000000 #000000 0 1;
#X obj 570 548 > 1;
#X obj 570 572 tgl 19 0 empty empty empty 0 -10 0 12 #fcfcfc #000000 #000000 0 1;
#X obj 615 524 > 1;
#X obj 615 548 tgl 19 0 empty empty empty 0 -10 0 12 #fcfcfc #000000 #000000 0 1;
#X obj 644 548 > 1;
#X obj 644 572 tgl 19 0 empty empty empty 0 -10 0 12 #fcfcfc #000000 #000000 0 1;
#X obj 689 524 > 1;
#X obj 689 548 tgl 19 0 empty empty empty 0 -10 0 12 #fcfcfc #000000 #000000 0 1;
#X obj 718 548 > 1;
#X obj 718 572 tgl 19 0 empty empty empty 0 -10 0 12 #fcfcfc #000000 #000000 0 1;
#X obj 763 524 > 1;
#X obj 763 548 tgl 19 0 empty empty empty 0 -10 0 12 #fcfcfc #000000 #000000 0 1;
#X obj 792 548 > 1;
#X obj 792 572 tgl 19 0 empty empty empty 0 -10 0 12 #fcfcfc #000000 #000000 0 1;
#X obj 541 475 ctlin 27 1;
#X obj 615 475 ctlin 28 1;
#X obj 689 475 ctlin 29 1;
#X obj 763 475 ctlin 30 1;
#X obj 570 499 ctlin 37 1;
#X obj 644 499 ctlin 38 1;
#X obj 718 499 ctlin 39 1;
#X obj 792 499 ctlin 40 1;
#X obj 837 524 > 1;
#X obj 837 548 tgl 19 0 empty empty empty 0 -10 0 12 #fcfcfc #000000 #000000 0 1;
#X obj 866 548 > 1;
#X obj 866 572 tgl 19 0 empty empty empty 0 -10 0 12 #fcfcfc #000000 #000000 0 1;
#X obj 837 475 ctlin 31 1;
#X obj 866 499 ctlin 41 1;
#X obj 541 596 s nano-buttonA05;
#X obj 570 620 s nano-buttonB05;
#X obj 615 644 s nano-buttonA06;
#X obj 644 668 s nano-buttonB06;
#X obj 689 596 s nano-buttonA07;
#X obj 718 620 s nano-buttonB07;
#X obj 763 644 s nano-buttonA08;
#X obj 792 668 s nano-buttonB08;
#X obj 837 596 s nano-buttonA09;
#X obj 866 620 s nano-buttonB09;
#X obj 61 102 > 1;
#X obj 61 126 tgl 19 0 empty empty empty 0 -10 0 12 #fcfcfc #000000 #000000 0 1;
#X obj 90 103 > 1;
#X obj 90 127 tgl 19 0 empty empty empty 0 -10 0 12 #fcfcfc #000000 #000000 0 1;
#X obj 61 30 ctlin 47 1;
#X obj 90 54 ctlin 45 1;
#X obj 121 103 > 1;
#X obj 121 127 tgl 19 0 empty empty empty 0 -10 0 12 #fcfcfc #000000 #000000 0 1;
#X obj 121 76 ctlin 48 1;
#X obj 61 151 s nano-rew;
#X obj 90 175 s nano-play;
#X obj 121 197 s nano-ff;
#X obj 61 301 > 1;
#X obj 61 325 tgl 19 0 empty empty empty 0 -10 0 12 #fcfcfc #000000 #000000 0 1;
#X obj 90 302 > 1;
#X obj 90 326 tgl 19 0 empty empty empty 0 -10 0 12 #fcfcfc #000000 #000000 0 1;
#X obj 121 302 > 1;
#X obj 121 326 tgl 19 0 empty empty empty 0 -10 0 12 #fcfcfc #000000 #000000 0 1;
#X obj 61 229 ctlin 49 1;
#X obj 90 253 ctlin 46 1;
#X obj 121 275 ctlin 44 1;
#X obj 61 350 s nano-rtz;
#X obj 90 374 s nano-stop;
#X obj 122 396 s nano-rec;
#X connect 0 0 1 0;
#X connect 1 0 2 0;
#X connect 2 0 5 0;
#X connect 3 0 4 0;
#X connect 4 0 0 0;
#X connect 6 0 7 0;
#X connect 7 0 8 0;
#X connect 8 0 10 0;
#X connect 9 0 6 0;
#X connect 11 0 9 0;
#X connect 12 0 13 0;
#X connect 13 0 14 0;
#X connect 14 0 25 0;
#X connect 15 0 12 0;
#X connect 16 0 17 0;
#X connect 17 0 18 0;
#X connect 18 0 26 0;
#X connect 19 0 16 0;
#X connect 20 0 21 0;
#X connect 20 1 22 0;
#X connect 23 0 15 0;
#X connect 24 0 19 0;
#X connect 27 0 28 0;
#X connect 28 0 29 0;
#X connect 29 0 46 0;
#X connect 30 0 27 0;
#X connect 31 0 32 0;
#X connect 32 0 33 0;
#X connect 33 0 47 0;
#X connect 34 0 31 0;
#X connect 35 0 36 0;
#X connect 36 0 37 0;
#X connect 37 0 48 0;
#X connect 38 0 35 0;
#X connect 39 0 40 0;
#X connect 40 0 41 0;
#X connect 41 0 49 0;
#X connect 42 0 39 0;
#X connect 43 0 30 0;
#X connect 44 0 34 0;
#X connect 45 0 38 0;
#X connect 50 0 51 0;
#X connect 51 0 52 0;
#X connect 52 0 54 0;
#X connect 53 0 50 0;
#X connect 55 0 42 0;
#X connect 56 0 53 0;
#X connect 57 0 59 0;
#X connect 58 0 57 0;
#X connect 59 0 60 0;
#X connect 61 0 62 0;
#X connect 62 0 64 0;
#X connect 63 0 61 0;
#X connect 65 0 66 0;
#X connect 66 0 71 0;
#X connect 67 0 68 0;
#X connect 68 0 72 0;
#X connect 69 0 65 0;
#X connect 70 0 67 0;
#X connect 73 0 74 0;
#X connect 74 0 85 0;
#X connect 75 0 76 0;
#X connect 76 0 86 0;
#X connect 77 0 78 0;
#X connect 78 0 87 0;
#X connect 79 0 80 0;
#X connect 80 0 88 0;
#X connect 81 0 73 0;
#X connect 82 0 75 0;
#X connect 83 0 77 0;
#X connect 84 0 79 0;
#X connect 89 0 90 0;
#X connect 90 0 92 0;
#X connect 91 0 89 0;
#X connect 93 0 94 0;
#X connect 94 0 96 0;
#X connect 95 0 93 0;
#X connect 97 0 98 0;
#X connect 98 0 100 0;
#X connect 99 0 97 0;
#X connect 101 0 102 0;
#X connect 102 0 105 0;
#X connect 103 0 104 0;
#X connect 104 0 106 0;
#X connect 107 0 101 0;
#X connect 108 0 103 0;
#X connect 109 0 110 0;
#X connect 110 0 121 0;
#X connect 111 0 112 0;
#X connect 112 0 122 0;
#X connect 113 0 114 0;
#X connect 114 0 123 0;
#X connect 115 0 116 0;
#X connect 116 0 124 0;
#X connect 117 0 109 0;
#X connect 118 0 113 0;
#X connect 119 0 111 0;
#X connect 120 0 115 0;
#X connect 125 0 126 0;
#X connect 126 0 155 0;
#X connect 127 0 128 0;
#X connect 128 0 156 0;
#X connect 129 0 130 0;
#X connect 130 0 157 0;
#X connect 131 0 132 0;
#X connect 132 0 158 0;
#X connect 133 0 134 0;
#X connect 134 0 159 0;
#X connect 135 0 136 0;
#X connect 136 0 160 0;
#X connect 137 0 138 0;
#X connect 138 0 161 0;
#X connect 139 0 140 0;
#X connect 140 0 162 0;
#X connect 141 0 125 0;
#X connect 142 0 129 0;
#X connect 143 0 133 0;
#X connect 144 0 137 0;
#X connect 145 0 127 0;
#X connect 146 0 131 0;
#X connect 147 0 135 0;
#X connect 148 0 139 0;
#X connect 149 0 150 0;
#X connect 150 0 163 0;
#X connect 151 0 152 0;
#X connect 152 0 164 0;
#X connect 153 0 149 0;
#X connect 154 0 151 0;
#X connect 165 0 166 0;
#X connect 166 0 174 0;
#X connect 167 0 168 0;
#X connect 168 0 175 0;
#X connect 169 0 165 0;
#X connect 170 0 167 0;
#X connect 171 0 172 0;
#X connect 172 0 176 0;
#X connect 173 0 171 0;
#X connect 177 0 178 0;
#X connect 178 0 186 0;
#X connect 179 0 180 0;
#X connect 180 0 187 0;
#X connect 181 0 182 0;
#X connect 182 0 188 0;
#X connect 183 0 177 0;
#X connect 184 0 179 0;
#X connect 185 0 181 0;
