#N canvas 179 216 450 300 12;
#X floatatom 37 78 5 0 0 0 - - - 0;
#X obj 37 101 - 8192;
#X obj 37 125 / 8192;
#X floatatom 37 149 5 0 0 0 - - - 0;
#X obj 37 45 inlet;
#X obj 37 180 outlet;
#X text 98 94 14 bit value converted to -1 to 1, f 14;
#X connect 0 0 1 0;
#X connect 1 0 2 0;
#X connect 2 0 3 0;
#X connect 3 0 5 0;
#X connect 4 0 0 0;
