#N canvas 208 245 450 300 12;
#X obj 80 187 pan1~, f 6;
#X obj 122 144 hsl 128 15 -1 1 0 1 empty empty empty -2 -6 0 8 #fce014 #000000 #000000 12700 1;
#X floatatom 119 165 5 0 0 0 - - - 0;
#X obj 121 57 hsl 128 15 -1 1 0 1 empty empty empty -2 -6 0 8 #fce014 #000000 #000000 12700 1;
#X obj 158 189 pan1~, f 6;
#X floatatom 197 167 5 0 0 0 - - - 0;
#X obj 118 80 - 1;
#X obj 190 78 + 1;
#X obj 122 127 hsl 128 15 -1 1 0 1 empty empty empty -2 -6 0 8 #fce014 #000000 #000000 6350 1;
#X obj 118 103 clip -1 0;
#X obj 190 102 clip 0 1;
#X obj 80 8 inlet~;
#X obj 161 8 inlet~;
#X obj 244 8 inlet;
#X obj 80 230 outlet~;
#X obj 158 230 outlet~;
#X connect 0 0 14 0;
#X connect 0 1 15 0;
#X connect 1 0 5 0;
#X connect 2 0 0 1;
#X connect 3 0 6 0;
#X connect 3 0 7 0;
#X connect 4 0 14 0;
#X connect 4 1 15 0;
#X connect 5 0 4 1;
#X connect 6 0 9 0;
#X connect 7 0 10 0;
#X connect 8 0 2 0;
#X connect 9 0 8 0;
#X connect 10 0 1 0;
#X connect 11 0 0 0;
#X connect 12 0 4 0;
#X connect 13 0 3 0;
