#N canvas 213 119 616 528 10;
#X obj 35 121 inlet~;
#X obj 416 19 inlet;
#X obj 416 44 clip -1 1;
#X obj 416 120 pack 0 100;
#X obj 416 145 line~;
#X obj 118 218 cos~;
#X obj 35 284 *~;
#X obj 131 402 outlet~;
#X obj 416 170 +~ 0.75;
#X obj 333 219 cos~;
#X obj 250 284 *~;
#X obj 102 121 inlet~;
#X obj 102 284 *~;
#X obj 207 402 outlet~;
#X obj 317 284 *~;
#X obj 250 121 inlet~;
#X obj 317 121 inlet~;
#X obj 333 250 *~;
#X obj 118 249 *~;
#X text 75 98 sig A;
#X text 289 98 sig B;
#X text 419 1 balance (-1=A 0=A+B 1=B);
#X text 9 470 xjimmies lib. z. settel/jm dumas 2003-2007;
#X obj 416 68 + 1;
#X obj 416 95 * 0.125;
#X text 65 1 makes a balanced mix of inputs A and B;
#X text 6 2 stbal1~;
#X text 101 426 balanced mix of inputs A and B;
#X connect 0 0 6 0;
#X connect 1 0 2 0;
#X connect 2 0 23 0;
#X connect 3 0 4 0;
#X connect 4 0 8 0;
#X connect 4 0 5 0;
#X connect 5 0 18 0;
#X connect 5 0 18 1;
#X connect 6 0 7 0;
#X connect 8 0 9 0;
#X connect 9 0 17 0;
#X connect 9 0 17 1;
#X connect 10 0 7 0;
#X connect 11 0 12 0;
#X connect 12 0 13 0;
#X connect 14 0 13 0;
#X connect 15 0 10 0;
#X connect 16 0 14 0;
#X connect 17 0 10 1;
#X connect 17 0 14 1;
#X connect 18 0 6 1;
#X connect 18 0 12 1;
#X connect 23 0 24 0;
#X connect 24 0 3 0;
