#N canvas 503 237 512 448 10;
#X obj 62 112 inlet~;
#X obj 62 370 *~;
#X obj 201 304 line~;
#X obj 356 112 inlet;
#X obj 201 212 pack 0 30;
#X obj 62 400 outlet~;
#X obj 128 112 inlet~;
#X obj 128 370 *~;
#X obj 128 400 outlet~;
#X obj 201 112 inlet;
#X obj 201 163 + 127;
#X obj 201 139 t f;
#X text 28 561 xjimmies lib. z. settel/jm dumas 2003-2007;
#X text 11 5 stgain2~ : stereo gain control object;
#X obj 202 250 linedrivee 145 7.94328 1.12202 30;
#X obj 259 144 optargf 30 \$1;
#X text 176 53 gain (-127db : +18db);
#X text 352 48 fade time (ms);
#X text 11 20 opt. arg1 : fade time_ms (default is 30);
#X text 178 68 default (-127);
#X text 347 67 default (30);
#X connect 0 0 1 0;
#X connect 1 0 5 0;
#X connect 2 0 1 1;
#X connect 2 0 7 1;
#X connect 3 0 4 1;
#X connect 4 0 14 0;
#X connect 6 0 7 0;
#X connect 7 0 8 0;
#X connect 9 0 11 0;
#X connect 10 0 4 0;
#X connect 11 0 10 0;
#X connect 14 0 2 0;
#X connect 15 0 4 1;
